<svg width="210" height="25" viewBox="0 0 210 25" fill="none" xmlns="http://www.w3.org/2000/svg">
<path d="M10.0645 13.2892C9.76992 14.4711 10.5555 14.6434 10.9851 14.5819H13.1946L13.7469 11.4426C15.9564 6.82602 17.6134 6.27203 18.3499 5.71804C18.9391 5.27485 20.498 4.4254 21.2959 4.05608C35.7309 -0.819017 54.0693 1.28614 61.25 2.20945C54.2534 -1.48381 22.5847 0.362823 18.9023 1.28614C15.9564 2.02479 14.8516 3.31743 14.6675 3.87142C13.2559 6.51825 10.3591 12.1074 10.0645 13.2892Z" fill="#FC0104"/>
<path d="M64.4097 4.01428C53.6317 1.32337 36.5419 1.77186 31.7435 2.89307C60.3495 2.51933 65.3891 6.89971 66.2552 8.87288C67.7317 12.2365 63.733 13.1086 60.534 13.3577L43.3704 12.984C19.5997 11.6385 3.32199 18.2163 0 22.1406C11.2209 13.3204 51.7984 13.4823 70.5 14.6658V12.984L68.2853 8.1254C67.1042 5.58399 65.2094 4.32573 64.4097 4.01428Z" fill="#FC0000"/>
<path d="M74.3879 11.7296C77.252 11.1466 78.7216 12.4584 77.968 13.5516H75.7069L74.3879 14.8269L71.75 15.3735L72.8805 16.1022L74.9532 15.0091H77.968C81.7364 14.4261 79.4125 11.9726 77.7795 10.8187H73.8227C72.3153 10.9644 72.8177 13.005 73.2574 14.0981H73.6342C73.6342 12.7864 74.0111 12.0333 74.3879 11.7296Z" fill="#FC0104"/>
<path d="M6.86208 11.2265C3.99805 10.6434 2.52835 11.9552 3.28204 13.0484H5.54312L6.86208 14.3237L9.5 14.8703L8.36946 15.599L6.29681 14.5059H3.28204C-0.486416 13.9229 1.83747 11.4694 3.47047 10.3155H7.42735C8.93473 10.4612 8.43227 12.5018 7.99262 13.5949H7.61577C7.61577 12.2832 7.23892 11.5301 6.86208 11.2265Z" fill="#FC0104"/>
<path d="M68.8 16.2735C37.9935 12.6427 19.4306 16.7778 14 19.2992C31.1805 14.912 52.5081 15.4541 61.3946 16.2735L52.5081 17.219C44.8065 18.278 48.682 20.812 51.5824 21.9466C57.9511 24.821 67.3189 22.64 71.2068 21.1902C73.5765 19.5261 77.1311 19.1101 78.6122 19.1101C79.9451 19.2613 81.0189 20.812 81.3892 21.5684L82.1297 24.405L82.5 21.5684L78.6122 16.2735C77.5754 15.8197 77.0694 16.0844 76.946 16.2735C74.28 19.1479 69.0469 20.4968 66.7635 20.812L61.5797 21.1902L57.6919 20.812C51.027 19.4505 54.2977 18.2276 56.7662 17.7863L68.8 16.2735Z" fill="#FC0104"/>
<path d="M93.5645 23.0772V23.857H90.5353V23.0772H93.5645ZM90.8136 18.1514V23.857H89.83V18.1514H90.8136ZM93.1687 20.534V21.302H90.5353V20.534H93.1687ZM93.5449 18.1514V18.9351H90.5353V18.1514H93.5449Z" fill="#FF0100"/>
<path d="M97.9314 22.3875C97.9314 22.27 97.9131 22.1655 97.8765 22.074C97.8425 21.9826 97.7811 21.899 97.6923 21.8232C97.6035 21.7475 97.4781 21.6743 97.3161 21.6038C97.1568 21.5306 96.953 21.4562 96.7048 21.3804C96.4331 21.2968 96.1823 21.2041 95.9524 21.1022C95.7251 20.9977 95.5266 20.8775 95.3568 20.7417C95.1869 20.6032 95.055 20.4451 94.961 20.2675C94.8669 20.0872 94.8199 19.8795 94.8199 19.6444C94.8199 19.4119 94.8682 19.2003 94.9649 19.0096C95.0642 18.8189 95.2039 18.6543 95.3842 18.5158C95.5671 18.3748 95.7826 18.2663 96.0308 18.1906C96.279 18.1122 96.5533 18.073 96.8537 18.073C97.2769 18.073 97.6414 18.1514 97.947 18.3081C98.2553 18.4649 98.4917 18.6752 98.6563 18.939C98.8235 19.2029 98.9071 19.4942 98.9071 19.8129H97.9314C97.9314 19.6248 97.8909 19.4589 97.8099 19.3152C97.7315 19.1689 97.6113 19.054 97.4494 18.9704C97.29 18.8868 97.0875 18.845 96.8419 18.845C96.6094 18.845 96.4161 18.8803 96.262 18.9508C96.1078 19.0213 95.9929 19.1167 95.9171 19.2369C95.8414 19.357 95.8035 19.4929 95.8035 19.6444C95.8035 19.7515 95.8283 19.8495 95.878 19.9383C95.9276 20.0245 96.0033 20.1055 96.1052 20.1813C96.2071 20.2544 96.3351 20.3237 96.4893 20.389C96.6434 20.4543 96.825 20.517 97.034 20.5771C97.3501 20.6711 97.6257 20.7756 97.8608 20.8906C98.0959 21.0029 98.2919 21.1309 98.4486 21.2746C98.6054 21.4183 98.7229 21.5816 98.8013 21.7644C98.8797 21.9447 98.9189 22.1498 98.9189 22.3797C98.9189 22.62 98.8705 22.8369 98.7739 23.0302C98.6772 23.2209 98.5388 23.3842 98.3585 23.52C98.1808 23.6533 97.9666 23.7564 97.7158 23.8296C97.4676 23.9001 97.1907 23.9354 96.8851 23.9354C96.6107 23.9354 96.3404 23.8988 96.0739 23.8257C95.81 23.7525 95.5697 23.6415 95.3528 23.4926C95.136 23.3411 94.9636 23.153 94.8356 22.9283C94.7076 22.701 94.6436 22.4358 94.6436 22.1328H95.6272C95.6272 22.3183 95.6585 22.4763 95.7212 22.607C95.7865 22.7376 95.8766 22.8447 95.9916 22.9283C96.1065 23.0093 96.2398 23.0694 96.3913 23.1086C96.5454 23.1477 96.71 23.1673 96.8851 23.1673C97.115 23.1673 97.307 23.1347 97.4611 23.0694C97.6179 23.0041 97.7354 22.9126 97.8138 22.7951C97.8922 22.6775 97.9314 22.5416 97.9314 22.3875Z" fill="#FF0100"/>
<path d="M102.698 18.1514V23.857H101.722V18.1514H102.698ZM104.489 18.1514V18.9351H99.947V18.1514H104.489Z" fill="#FF0100"/>
<path d="M109.537 23.0772V23.857H106.508V23.0772H109.537ZM106.787 18.1514V23.857H105.803V18.1514H106.787ZM109.142 20.534V21.302H106.508V20.534H109.142ZM109.518 18.1514V18.9351H106.508V18.1514H109.518ZM107.21 17.7713L107.974 16.5917H109.04L107.974 17.7713H107.21Z" fill="#FF0100"/>
<path d="M113.328 18.1514V23.857H112.353V18.1514H113.328ZM115.119 18.1514V18.9351H110.577V18.1514H115.119Z" fill="#FF0100"/>
<path d="M117.484 18.1514V23.857H116.5V18.1514H117.484Z" fill="#FF0100"/>
<path d="M122.638 21.9996H123.618C123.586 22.3731 123.482 22.7062 123.304 22.9988C123.127 23.2888 122.877 23.5174 122.556 23.6846C122.234 23.8518 121.844 23.9354 121.384 23.9354C121.031 23.9354 120.714 23.8727 120.432 23.7473C120.15 23.6193 119.908 23.439 119.707 23.2065C119.506 22.9714 119.352 22.6879 119.244 22.3562C119.14 22.0244 119.088 21.6534 119.088 21.2432V20.7691C119.088 20.3589 119.141 19.988 119.248 19.6562C119.358 19.3244 119.515 19.0409 119.719 18.8058C119.922 18.5681 120.167 18.3865 120.451 18.2611C120.739 18.1357 121.061 18.073 121.419 18.073C121.874 18.073 122.258 18.1566 122.571 18.3238C122.885 18.491 123.128 18.7222 123.3 19.0174C123.475 19.3126 123.582 19.6509 123.622 20.0324H122.642C122.616 19.7868 122.558 19.5765 122.47 19.4015C122.383 19.2264 122.255 19.0932 122.085 19.0017C121.916 18.9077 121.694 18.8607 121.419 18.8607C121.195 18.8607 120.999 18.9025 120.832 18.9861C120.664 19.0697 120.525 19.1925 120.412 19.3544C120.3 19.5164 120.215 19.7163 120.157 19.954C120.103 20.1891 120.075 20.4582 120.075 20.7612V21.2432C120.075 21.5306 120.1 21.7919 120.15 22.027C120.202 22.2595 120.28 22.4594 120.385 22.6266C120.492 22.7938 120.628 22.9231 120.792 23.0145C120.957 23.1059 121.154 23.1517 121.384 23.1517C121.664 23.1517 121.89 23.1072 122.062 23.0184C122.237 22.9296 122.369 22.8003 122.458 22.6305C122.549 22.458 122.609 22.2477 122.638 21.9996Z" fill="#FF0100"/>
<path d="M127.295 18.9116L125.59 23.857H124.56L126.707 18.1514H127.365L127.295 18.9116ZM128.721 23.857L127.013 18.9116L126.938 18.1514H127.601L129.756 23.857H128.721ZM128.639 21.7409V22.5207H125.535V21.7409H128.639Z" fill="#FF0100"/>
<path d="M135.802 18.9116L134.097 23.857H133.067L135.214 18.1514H135.872L135.802 18.9116ZM137.228 23.857L135.52 18.9116L135.445 18.1514H136.108L138.263 23.857H137.228ZM137.146 21.7409V22.5207H134.042V21.7409H137.146Z" fill="#FF0100"/>
<path d="M142.755 18.1514H143.735V21.9643C143.735 22.398 143.641 22.7611 143.452 23.0537C143.264 23.3463 143.008 23.567 142.684 23.716C142.363 23.8623 142.004 23.9354 141.607 23.9354C141.197 23.9354 140.831 23.8623 140.51 23.716C140.188 23.567 139.935 23.3463 139.749 23.0537C139.566 22.7611 139.475 22.398 139.475 21.9643V18.1514H140.455V21.9643C140.455 22.2386 140.502 22.4646 140.596 22.6422C140.69 22.8173 140.823 22.9466 140.995 23.0302C141.168 23.1138 141.372 23.1556 141.607 23.1556C141.842 23.1556 142.044 23.1138 142.214 23.0302C142.387 22.9466 142.52 22.8173 142.614 22.6422C142.708 22.4646 142.755 22.2386 142.755 21.9643V18.1514Z" fill="#FF0100"/>
<path d="M147.874 18.1514V23.857H146.898V18.1514H147.874ZM149.665 18.1514V18.9351H145.123V18.1514H149.665Z" fill="#FF0100"/>
<path d="M155.579 20.8475V21.161C155.579 21.592 155.523 21.9787 155.411 22.3209C155.299 22.6631 155.138 22.9544 154.929 23.1948C154.723 23.4351 154.474 23.6193 154.184 23.7473C153.894 23.8727 153.573 23.9354 153.22 23.9354C152.87 23.9354 152.55 23.8727 152.26 23.7473C151.973 23.6193 151.723 23.4351 151.512 23.1948C151.3 22.9544 151.136 22.6631 151.018 22.3209C150.903 21.9787 150.846 21.592 150.846 21.161V20.8475C150.846 20.4164 150.903 20.0311 151.018 19.6914C151.133 19.3492 151.295 19.0579 151.504 18.8176C151.716 18.5746 151.965 18.3904 152.252 18.265C152.542 18.137 152.862 18.073 153.213 18.073C153.565 18.073 153.887 18.137 154.177 18.265C154.467 18.3904 154.716 18.5746 154.925 18.8176C155.134 19.0579 155.295 19.3492 155.407 19.6914C155.522 20.0311 155.579 20.4164 155.579 20.8475ZM154.596 21.161V20.8396C154.596 20.5209 154.564 20.2401 154.502 19.9971C154.442 19.7515 154.352 19.5464 154.231 19.3819C154.114 19.2147 153.969 19.0893 153.796 19.0057C153.624 18.9195 153.429 18.8763 153.213 18.8763C152.996 18.8763 152.802 18.9195 152.633 19.0057C152.463 19.0893 152.318 19.2147 152.198 19.3819C152.08 19.5464 151.99 19.7515 151.927 19.9971C151.865 20.2401 151.833 20.5209 151.833 20.8396V21.161C151.833 21.4797 151.865 21.7618 151.927 22.0074C151.99 22.253 152.081 22.4607 152.202 22.6305C152.324 22.7977 152.471 22.9244 152.64 23.0106C152.81 23.0942 153.004 23.136 153.22 23.136C153.44 23.136 153.634 23.0942 153.804 23.0106C153.974 22.9244 154.118 22.7977 154.235 22.6305C154.353 22.4607 154.442 22.253 154.502 22.0074C154.564 21.7618 154.596 21.4797 154.596 21.161Z" fill="#FF0100"/>
<path d="M157.685 18.1514H158.563L160.213 22.5521L161.858 18.1514H162.736L160.557 23.857H159.86L157.685 18.1514ZM157.285 18.1514H158.12L158.265 21.9604V23.857H157.285V18.1514ZM162.301 18.1514H163.14V23.857H162.156V21.9604L162.301 18.1514Z" fill="#FF0100"/>
<path d="M169.58 20.8475V21.161C169.58 21.592 169.523 21.9787 169.411 22.3209C169.299 22.6631 169.138 22.9544 168.929 23.1948C168.723 23.4351 168.475 23.6193 168.185 23.7473C167.895 23.8727 167.573 23.9354 167.221 23.9354C166.87 23.9354 166.55 23.8727 166.26 23.7473C165.973 23.6193 165.724 23.4351 165.512 23.1948C165.3 22.9544 165.136 22.6631 165.018 22.3209C164.903 21.9787 164.846 21.592 164.846 21.161V20.8475C164.846 20.4164 164.903 20.0311 165.018 19.6914C165.133 19.3492 165.295 19.0579 165.504 18.8176C165.716 18.5746 165.965 18.3904 166.253 18.265C166.543 18.137 166.863 18.073 167.213 18.073C167.565 18.073 167.887 18.137 168.177 18.265C168.467 18.3904 168.716 18.5746 168.925 18.8176C169.134 19.0579 169.295 19.3492 169.407 19.6914C169.522 20.0311 169.58 20.4164 169.58 20.8475ZM168.596 21.161V20.8396C168.596 20.5209 168.565 20.2401 168.502 19.9971C168.442 19.7515 168.352 19.5464 168.232 19.3819C168.114 19.2147 167.969 19.0893 167.797 19.0057C167.624 18.9195 167.43 18.8763 167.213 18.8763C166.996 18.8763 166.803 18.9195 166.633 19.0057C166.463 19.0893 166.318 19.2147 166.198 19.3819C166.08 19.5464 165.99 19.7515 165.927 19.9971C165.865 20.2401 165.833 20.5209 165.833 20.8396V21.161C165.833 21.4797 165.865 21.7618 165.927 22.0074C165.99 22.253 166.081 22.4607 166.202 22.6305C166.324 22.7977 166.471 22.9244 166.641 23.0106C166.81 23.0942 167.004 23.136 167.221 23.136C167.44 23.136 167.635 23.0942 167.804 23.0106C167.974 22.9244 168.118 22.7977 168.235 22.6305C168.353 22.4607 168.442 22.253 168.502 22.0074C168.565 21.7618 168.596 21.4797 168.596 21.161Z" fill="#FF0100"/>
<path d="M173.437 18.1514V23.857H172.461V18.1514H173.437ZM175.228 18.1514V18.9351H170.686V18.1514H175.228Z" fill="#FF0100"/>
<path d="M177.753 18.1514V23.857H176.769V18.1514H177.753Z" fill="#FF0100"/>
<path d="M181.653 22.8147L183.154 18.1514H184.239L182.194 23.857H181.461L181.653 22.8147ZM180.266 18.1514L181.755 22.8147L181.959 23.857H181.222L179.184 18.1514H180.266Z" fill="#FF0100"/>
<path d="M187.524 18.9116L185.82 23.857H184.789L186.937 18.1514H187.595L187.524 18.9116ZM188.951 23.857L187.242 18.9116L187.168 18.1514H187.83L189.985 23.857H188.951ZM188.869 21.7409V22.5207H185.765V21.7409H188.869Z" fill="#FF0100"/>
<path fill-rule="evenodd" clip-rule="evenodd" d="M197 0.503194V13.3347H200.29V10.8512H203.992L206.048 13.3347H209.75L207.488 10.8512H209.75V0.503194H197ZM200.29 3.81454V7.53981H206.46V3.81454H200.29Z" fill="#F1F1F1"/>
<path fill-rule="evenodd" clip-rule="evenodd" d="M182.5 13.3347V0.503194H195.25V13.3347H192.371V10.8512H185.379V13.3347H182.5ZM185.79 3.81454V7.53981H191.96V3.81454H185.79Z" fill="#F1F1F1"/>
<path d="M180.25 3.81454H171.267V10.0233H180.25V13.3347H168V0.503194H180.25V3.81454Z" fill="#F1F1F1"/>
<path d="M166 4.52875H162.75V13.3347H166V4.52875Z" fill="#F1F1F1"/>
<path d="M162.75 3.52236V0.503194H166V3.52236H162.75Z" fill="#F1F1F1"/>
<path d="M153.189 3.4972V13.3347H156.598V3.4972H161.5V0.503194H148.5V3.4972H153.189Z" fill="#F1F1F1"/>
<path d="M133.75 13.0831V0.503194H146.5V3.4385H136.885V5.11581H146.5V8.05112H136.885V10.1478H146.5V13.0831H133.75Z" fill="#F1F1F1"/>
<path d="M123.939 3.4972V13.3347H127.348V3.4972H132.25V0.503194H119.25V3.4972H123.939Z" fill="#F1F1F1"/>
<path d="M104.75 8.20208V0.503194H117.5V3.4972H107.725V5.20807H117.5V13.3347H104.75V10.3407H114.525V8.20208H104.75Z" fill="#F1F1F1"/>
<path d="M90 13.3347V0.754791H102.75V3.69009H93.1352V5.36741H102.75V8.30271H93.1352V10.3994H102.75V13.3347H90Z" fill="#F1F1F1"/>
</svg>
