<svg width="80" height="40" viewBox="0 0 289 149" fill="none" xmlns="http://www.w3.org/2000/svg">
<path d="M35 105V87H65V94H42V98H65V117H35V110H58V105H35Z" fill="#F1F1F1"/>
<path d="M80 94V117H88V94H99.5V87H69V94H80Z" fill="#F1F1F1"/>
<path d="M149 94V117H157V94H168.5V87H138V94H149Z" fill="#F1F1F1"/>
<path d="M55.5 36C54.7 39.2 56.8333 39.6667 58 39.5H64L65.5 31C71.5 18.5 76 17 78 15.5C79.6 14.3 83.8333 12 86 11C125.2 -2.19999 175 3.5 194.5 5.99999C175.5 -4 89.5 1 79.5 3.5C71.5 5.5 68.5 9 68 10.5C64.1667 17.6667 56.3 32.8 55.5 36Z" fill="#FC0104"/>
<path d="M203.5 10.5C174.3 3.29999 128 4.5 115 7.49999C192.5 6.5 206.154 18.2205 208.5 23.5C212.5 32.5 201.667 34.8333 193 35.5L146.5 34.5C82.1 30.9 38 48.5 29 59C59.4 35.4 169.333 35.8333 220 39V34.5L214 21.5C210.8 14.7 205.667 11.3333 203.5 10.5Z" fill="#FC0000"/>
<path d="M230 31.5C237.6 29.9 241.5 33.5 239.5 36.5H233.5L230 40L223 41.5L226 43.5L231.5 40.5H239.5C249.5 38.9 243.333 32.1667 239 29H228.5C224.5 29.4 225.833 35 227 38H228C228 34.4 229 32.3333 230 31.5Z" fill="#FC0104"/>
<path d="M46.8922 30.5C39.2922 28.9 35.3922 32.5 37.3922 35.5H43.3922L46.8922 39L53.8922 40.5L50.8922 42.5L45.3922 39.5H37.3922C27.3922 37.9 33.5589 31.1667 37.8922 28H48.3922C52.3922 28.4 51.0589 34 49.8922 37H48.8922C48.8922 33.4 47.8922 31.3333 46.8922 30.5Z" fill="#FC0104"/>
<path d="M215 44C131.8 34.4 81.6667 45.3333 67 52C113.4 40.4 171 41.8333 195 44L171 46.5C150.2 49.3 160.667 56 168.5 59C185.7 66.6 211 60.8333 221.5 57C227.9 52.6 237.5 51.5 241.5 51.5C245.1 51.9 248 56 249 58L251 65.5L252 58L241.5 44C238.7 42.8 237.333 43.5 237 44C229.8 51.6 215.667 55.1667 209.5 56L195.5 57L185 56C167 52.4 175.833 49.1667 182.5 48L215 44Z" fill="#FC0104"/>
<path d="M33.4688 146.734V148H28.9336V146.734H33.4688ZM29.4258 139.469V148H27.8145V139.469H29.4258ZM32.877 142.99V144.227H28.9336V142.99H32.877ZM33.4512 139.469V140.74H28.9336V139.469H33.4512Z" fill="#8C3A40"/>
<path d="M43.9127 145.785C43.9127 145.621 43.8873 145.475 43.8366 145.346C43.7897 145.213 43.7018 145.094 43.5729 144.988C43.4479 144.879 43.2702 144.773 43.0397 144.672C42.8131 144.566 42.5202 144.457 42.1608 144.344C41.7623 144.219 41.3913 144.078 41.0475 143.922C40.7038 143.766 40.401 143.584 40.1393 143.377C39.8815 143.17 39.6803 142.932 39.5358 142.662C39.3913 142.389 39.319 142.072 39.319 141.713C39.319 141.361 39.3932 141.041 39.5416 140.752C39.694 140.463 39.9088 140.215 40.1862 140.008C40.4635 139.797 40.7897 139.635 41.1647 139.521C41.5436 139.408 41.9616 139.352 42.4186 139.352C43.0514 139.352 43.5983 139.467 44.0592 139.697C44.5241 139.928 44.8834 140.24 45.1373 140.635C45.3913 141.029 45.5182 141.473 45.5182 141.965H43.9127C43.9127 141.699 43.8561 141.465 43.7428 141.262C43.6334 141.059 43.4655 140.898 43.2389 140.781C43.0163 140.664 42.735 140.605 42.3952 140.605C42.067 140.605 41.7936 140.654 41.5748 140.752C41.36 140.85 41.1979 140.982 41.0885 141.15C40.983 141.318 40.9303 141.506 40.9303 141.713C40.9303 141.869 40.9674 142.01 41.0416 142.135C41.1159 142.256 41.2272 142.371 41.3756 142.48C41.5241 142.586 41.7077 142.686 41.9264 142.779C42.1491 142.869 42.4069 142.959 42.6998 143.049C43.1686 143.189 43.5788 143.346 43.9303 143.518C44.2858 143.689 44.5807 143.885 44.8151 144.104C45.0534 144.322 45.2311 144.568 45.3483 144.842C45.4694 145.115 45.5299 145.426 45.5299 145.773C45.5299 146.141 45.4577 146.469 45.3131 146.758C45.1686 147.047 44.9616 147.293 44.692 147.496C44.4225 147.699 44.0983 147.854 43.7194 147.959C43.3444 148.064 42.9245 148.117 42.4596 148.117C42.0455 148.117 41.6354 148.062 41.2291 147.953C40.8268 147.84 40.4616 147.672 40.1334 147.449C39.8053 147.223 39.5436 146.938 39.3483 146.594C39.153 146.246 39.0553 145.84 39.0553 145.375H40.6725C40.6725 145.645 40.7155 145.875 40.8014 146.066C40.8913 146.254 41.0163 146.408 41.1764 146.529C41.3405 146.646 41.5319 146.732 41.7506 146.787C41.9694 146.842 42.2057 146.869 42.4596 146.869C42.7877 146.869 43.0573 146.824 43.2682 146.734C43.483 146.641 43.6432 146.512 43.7487 146.348C43.858 146.184 43.9127 145.996 43.9127 145.785Z" fill="#8C3A40"/>
<path d="M55.2942 139.469V148H53.6888V139.469H55.2942ZM57.9427 139.469V140.74H51.0696V139.469H57.9427Z" fill="#8C3A40"/>
<path d="M69.5292 146.734V148H64.9941V146.734H69.5292ZM65.4863 139.469V148H63.8749V139.469H65.4863ZM68.9374 142.99V144.227H64.9941V142.99H68.9374ZM69.5116 139.469V140.74H64.9941V139.469H69.5116ZM66.0077 138.93L67.1562 137.148H68.8671L67.2675 138.93H66.0077Z" fill="#8C3A40"/>
<path d="M79.2877 139.469V148H77.6822V139.469H79.2877ZM81.9361 139.469V140.74H75.063V139.469H81.9361Z" fill="#8C3A40"/>
<path d="M89.5852 139.469V148H87.9738V139.469H89.5852Z" fill="#8C3A40"/>
<path d="M101.178 145.193H102.789C102.746 145.764 102.588 146.27 102.314 146.711C102.041 147.148 101.66 147.492 101.172 147.742C100.683 147.992 100.092 148.117 99.3963 148.117C98.8612 148.117 98.3788 148.023 97.9491 147.836C97.5233 147.645 97.1581 147.373 96.8534 147.021C96.5526 146.666 96.3221 146.24 96.162 145.744C96.0018 145.244 95.9217 144.684 95.9217 144.062V143.412C95.9217 142.791 96.0038 142.23 96.1678 141.73C96.3319 141.23 96.5663 140.805 96.8709 140.453C97.1795 140.098 97.5487 139.824 97.9784 139.633C98.412 139.441 98.8963 139.346 99.4315 139.346C100.127 139.346 100.715 139.475 101.195 139.732C101.676 139.986 102.049 140.336 102.314 140.781C102.58 141.227 102.74 141.738 102.795 142.316H101.183C101.152 141.957 101.074 141.652 100.949 141.402C100.828 141.152 100.644 140.963 100.398 140.834C100.156 140.701 99.8338 140.635 99.4315 140.635C99.119 140.635 98.8436 140.693 98.6053 140.811C98.3709 140.928 98.1756 141.104 98.0194 141.338C97.8631 141.568 97.7459 141.857 97.6678 142.205C97.5897 142.549 97.5506 142.947 97.5506 143.4V144.062C97.5506 144.496 97.5858 144.885 97.6561 145.229C97.7264 145.572 97.8358 145.863 97.9842 146.102C98.1327 146.34 98.3241 146.521 98.5584 146.646C98.7928 146.771 99.0721 146.834 99.3963 146.834C99.7909 146.834 100.111 146.771 100.357 146.646C100.607 146.521 100.797 146.338 100.926 146.096C101.058 145.854 101.142 145.553 101.178 145.193Z" fill="#8C3A40"/>
<path d="M112.29 140.764L109.858 148H108.153L111.34 139.469H112.43L112.29 140.764ZM114.323 148L111.879 140.764L111.733 139.469H112.829L116.034 148H114.323ZM114.211 144.83V146.102H109.635V144.83H114.211Z" fill="#8C3A40"/>
<path d="M133.207 140.764L130.775 148H129.07L132.258 139.469H133.348L133.207 140.764ZM135.24 148L132.797 140.764L132.65 139.469H133.746L136.951 148H135.24ZM135.129 144.83V146.102H130.553V144.83H135.129Z" fill="#8C3A40"/>
<path d="M147.871 139.469H149.482V145.135C149.482 145.787 149.341 146.336 149.06 146.781C148.779 147.223 148.396 147.557 147.912 147.783C147.427 148.006 146.877 148.117 146.259 148.117C145.634 148.117 145.078 148.006 144.589 147.783C144.101 147.557 143.718 147.223 143.441 146.781C143.164 146.336 143.025 145.787 143.025 145.135V139.469H144.636V145.135C144.636 145.533 144.703 145.859 144.836 146.113C144.968 146.363 145.156 146.549 145.398 146.67C145.64 146.791 145.927 146.852 146.259 146.852C146.595 146.852 146.882 146.791 147.121 146.67C147.363 146.549 147.548 146.363 147.677 146.113C147.806 145.859 147.871 145.533 147.871 145.135V139.469Z" fill="#8C3A40"/>
<path d="M160.073 139.469V148H158.468V139.469H160.073ZM162.722 139.469V140.74H155.849V139.469H162.722Z" fill="#8C3A40"/>
<path d="M175.938 143.518V143.957C175.938 144.602 175.852 145.182 175.68 145.697C175.509 146.209 175.264 146.645 174.948 147.004C174.632 147.363 174.255 147.639 173.817 147.83C173.38 148.021 172.893 148.117 172.358 148.117C171.831 148.117 171.346 148.021 170.905 147.83C170.468 147.639 170.089 147.363 169.768 147.004C169.448 146.645 169.2 146.209 169.024 145.697C168.848 145.182 168.761 144.602 168.761 143.957V143.518C168.761 142.869 168.848 142.289 169.024 141.777C169.2 141.266 169.446 140.83 169.762 140.471C170.079 140.107 170.456 139.83 170.893 139.639C171.335 139.447 171.819 139.352 172.346 139.352C172.882 139.352 173.368 139.447 173.805 139.639C174.243 139.83 174.62 140.107 174.936 140.471C175.257 140.83 175.503 141.266 175.675 141.777C175.85 142.289 175.938 142.869 175.938 143.518ZM174.309 143.957V143.506C174.309 143.041 174.266 142.633 174.18 142.281C174.095 141.926 173.968 141.627 173.8 141.385C173.632 141.143 173.425 140.961 173.179 140.84C172.932 140.715 172.655 140.652 172.346 140.652C172.034 140.652 171.757 140.715 171.514 140.84C171.276 140.961 171.073 141.143 170.905 141.385C170.737 141.627 170.608 141.926 170.518 142.281C170.432 142.633 170.389 143.041 170.389 143.506V143.957C170.389 144.418 170.432 144.826 170.518 145.182C170.608 145.537 170.737 145.838 170.905 146.084C171.077 146.326 171.284 146.51 171.526 146.635C171.768 146.76 172.046 146.822 172.358 146.822C172.671 146.822 172.948 146.76 173.19 146.635C173.432 146.51 173.636 146.326 173.8 146.084C173.968 145.838 174.095 145.537 174.18 145.182C174.266 144.826 174.309 144.418 174.309 143.957Z" fill="#8C3A40"/>
<path d="M183.407 139.469H184.801L187.133 145.891L189.459 139.469H190.86L187.69 148H186.571L183.407 139.469ZM182.704 139.469H184.069L184.315 145.369V148H182.704V139.469ZM190.192 139.469H191.563V148H189.952V145.369L190.192 139.469Z" fill="#8C3A40"/>
<path d="M205.512 143.518V143.957C205.512 144.602 205.426 145.182 205.254 145.697C205.082 146.209 204.838 146.645 204.521 147.004C204.205 147.363 203.828 147.639 203.391 147.83C202.953 148.021 202.467 148.117 201.932 148.117C201.404 148.117 200.92 148.021 200.479 147.83C200.041 147.639 199.662 147.363 199.342 147.004C199.021 146.645 198.773 146.209 198.598 145.697C198.422 145.182 198.334 144.602 198.334 143.957V143.518C198.334 142.869 198.422 142.289 198.598 141.777C198.773 141.266 199.02 140.83 199.336 140.471C199.652 140.107 200.029 139.83 200.467 139.639C200.908 139.447 201.393 139.352 201.92 139.352C202.455 139.352 202.941 139.447 203.379 139.639C203.816 139.83 204.193 140.107 204.51 140.471C204.83 140.83 205.076 141.266 205.248 141.777C205.424 142.289 205.512 142.869 205.512 143.518ZM203.883 143.957V143.506C203.883 143.041 203.84 142.633 203.754 142.281C203.668 141.926 203.541 141.627 203.373 141.385C203.205 141.143 202.998 140.961 202.752 140.84C202.506 140.715 202.229 140.652 201.92 140.652C201.607 140.652 201.33 140.715 201.088 140.84C200.85 140.961 200.646 141.143 200.479 141.385C200.311 141.627 200.182 141.926 200.092 142.281C200.006 142.633 199.963 143.041 199.963 143.506V143.957C199.963 144.418 200.006 144.826 200.092 145.182C200.182 145.537 200.311 145.838 200.479 146.084C200.65 146.326 200.857 146.51 201.1 146.635C201.342 146.76 201.619 146.822 201.932 146.822C202.244 146.822 202.521 146.76 202.764 146.635C203.006 146.51 203.209 146.326 203.373 146.084C203.541 145.838 203.668 145.537 203.754 145.182C203.84 144.826 203.883 144.418 203.883 143.957Z" fill="#8C3A40"/>
<path d="M215.599 139.469V148H213.994V139.469H215.599ZM218.248 139.469V140.74H211.375V139.469H218.248Z" fill="#8C3A40"/>
<path d="M226.437 139.469V148H224.825V139.469H226.437Z" fill="#8C3A40"/>
<path d="M236.577 146.33L238.704 139.469H240.491L237.479 148H236.29L236.577 146.33ZM234.614 139.469L236.729 146.33L237.034 148H235.833L232.833 139.469H234.614Z" fill="#8C3A40"/>
<path d="M249.717 140.764L247.286 148H245.58L248.768 139.469H249.858L249.717 140.764ZM251.75 148L249.307 140.764L249.161 139.469H250.256L253.461 148H251.75ZM251.639 144.83V146.102H247.063V144.83H251.639Z" fill="#8C3A40"/>
<path d="M0.5 117V87H31V94H8V98H31V105H8V110H31V117H0.5Z" fill="#F1F1F1"/>
<path d="M103 117V87H134.5V94H111.5V98H134.5V105H111.5V110H134.5V117H103Z" fill="#F1F1F1"/>
<path d="M180 96H172V117H180V96Z" fill="#F1F1F1"/>
<path d="M172 94V87H180V94H172Z" fill="#F1F1F1"/>
<path d="M218 95H196V110H218V118H188V87H218V95Z" fill="#FC0104"/>
<path fill-rule="evenodd" clip-rule="evenodd" d="M223 118V87H254V118H247V112H230V118H223ZM231 95V104H246V95H231Z" fill="#FC0104"/>
<path fill-rule="evenodd" clip-rule="evenodd" d="M258 87V118H266V112H275L280 118H289L283.5 112H289V87H258ZM266 95V104H281V95H266Z" fill="#FC0104"/>
</svg>
