<svg width="94" height="94" viewBox="0 0 94 94" fill="none" xmlns="http://www.w3.org/2000/svg">
<g id="Vector">
<path d="M84.66 37.3L79.59 25.97C77.5 21.29 72.83 18.27 67.71 18.27H41.86C37.77 18.27 33.87 20.23 31.43 23.5L21.94 36.21L6.95 41.33C3.37 42.55 0.97 45.91 0.97 49.68V57.58C0.97 61.43 4.11 64.57 7.96 64.57H14.05C15.88 67.45 19.09 69.36 22.75 69.36C26.41 69.36 29.62 67.44 31.45 64.57H44.63C44.7 65.42 44.95 66.27 45.43 67.04L55.89 83.64C56.67 84.88 57.89 85.75 59.33 86.07C59.74 86.16 60.15 86.21 60.56 86.21C61.59 86.21 62.59 85.92 63.48 85.36L65.69 83.97L68.54 88.49C70.11 90.98 72.56 92.72 75.43 93.37C76.25 93.56 77.07 93.65 77.89 93.65C79.95 93.65 81.97 93.07 83.75 91.95L87.99 89.28C93.14 86.04 94.69 79.21 91.44 74.06L88.59 69.54L89.36 69.06C91.7 67.58 92.53 64.62 91.42 62.16C92.48 60.93 93.13 59.34 93.13 57.59V49.05C93.13 46.9 92.25 44.8 90.72 43.29L84.65 37.3H84.66ZM22.74 66.36C18.71 66.36 15.43 63.08 15.43 59.05C15.43 55.02 18.71 51.73 22.74 51.73C26.77 51.73 30.06 55.01 30.06 59.05C30.06 63.09 26.78 66.36 22.74 66.36ZM88.9 75.64C91.26 79.39 90.13 84.36 86.39 86.72L82.15 89.39C80.34 90.53 78.18 90.9 76.09 90.43C74 89.95 72.21 88.69 71.07 86.88L63.44 74.76C63.29 74.52 63.24 74.22 63.31 73.93C63.35 73.76 63.45 73.53 63.69 73.39C63.83 73.31 63.98 73.27 64.14 73.27C64.21 73.27 64.28 73.27 64.35 73.29C64.58 73.34 64.78 73.48 64.91 73.69L69.97 81.72C70.26 82.17 70.74 82.42 71.24 82.42C71.51 82.42 71.79 82.35 72.04 82.19C72.74 81.75 72.95 80.82 72.51 80.12L63.13 65.23C62.98 64.99 62.93 64.68 63 64.4C63.04 64.23 63.14 64 63.38 63.86C63.58 63.74 63.82 63.71 64.03 63.76C64.27 63.82 64.47 63.96 64.6 64.16L71.51 75.13C71.8 75.58 72.28 75.83 72.78 75.83C73.05 75.83 73.33 75.76 73.58 75.6C74.28 75.16 74.49 74.23 74.05 73.53L64.64 58.59C64.49 58.35 64.44 58.04 64.51 57.76C64.55 57.59 64.65 57.36 64.89 57.22C65.09 57.1 65.32 57.07 65.54 57.12C65.78 57.18 65.98 57.32 66.11 57.53L75.58 72.57C75.87 73.02 76.35 73.27 76.85 73.27C77.12 73.27 77.4 73.2 77.65 73.04C78.35 72.6 78.56 71.67 78.12 70.97L70.5 58.87C70.37 58.67 70.33 58.42 70.38 58.19C70.43 57.95 70.58 57.75 70.78 57.62C70.99 57.49 71.23 57.45 71.47 57.5C71.7 57.55 71.9 57.7 72.03 57.9L79.66 70C79.95 70.45 80.43 70.7 80.93 70.7C81.2 70.7 81.48 70.63 81.73 70.47C82.43 70.03 82.64 69.1 82.2 68.4L77.5 60.93C77.37 60.72 77.33 60.48 77.38 60.25C77.43 60.01 77.58 59.81 77.78 59.68C77.99 59.55 78.23 59.51 78.46 59.56C78.7 59.62 78.9 59.76 79.03 59.97L88.9 75.64ZM88.86 64.94C88.71 65.59 88.32 66.15 87.75 66.5L86.99 66.98L81.56 58.37C81.01 57.49 80.14 56.88 79.11 56.64C78.09 56.41 77.05 56.6 76.17 57.15C75.91 57.32 75.67 57.51 75.46 57.72L74.57 56.3C74.01 55.42 73.15 54.8 72.13 54.57C71.11 54.34 70.06 54.52 69.18 55.07C68.91 55.24 68.67 55.43 68.46 55.65C67.91 54.91 67.12 54.39 66.19 54.18C65.23 53.96 64.22 54.12 63.37 54.62C62.47 55.14 61.84 56 61.58 57.04C61.32 58.11 61.5 59.26 62.08 60.19L62.56 60.95C62.32 61.03 62.08 61.14 61.85 61.27C60.95 61.79 60.32 62.65 60.06 63.68C59.8 64.75 59.98 65.9 60.56 66.83L62.85 70.47C62.61 70.55 62.37 70.66 62.15 70.79C61.25 71.31 60.62 72.17 60.36 73.21C60.1 74.28 60.28 75.43 60.86 76.35L64.05 81.41L61.84 82.8C60.67 83.53 59.13 83.18 58.39 82.02L47.93 65.42C47.57 64.86 47.46 64.19 47.61 63.53C47.76 62.87 48.15 62.32 48.72 61.97L74.61 45.66C75.77 44.93 77.32 45.28 78.06 46.44L88.52 63.04C88.88 63.6 88.99 64.27 88.84 64.93L88.86 64.94ZM90.13 57.57C90.13 58.19 89.97 58.78 89.72 59.3L80.62 44.85C79 42.28 75.6 41.51 73.03 43.13L47.14 59.44C46.29 59.98 45.65 60.72 45.22 61.56H32.73C32.93 60.75 33.05 59.91 33.05 59.04C33.05 53.35 28.42 48.72 22.73 48.72C17.04 48.72 12.42 53.35 12.42 59.04C12.42 59.91 12.54 60.75 12.74 61.56H7.94C5.74 61.56 3.95 59.77 3.95 57.57V49.67C3.95 47.18 5.54 44.96 7.9 44.15L23.33 38.88C23.62 38.78 23.87 38.6 24.05 38.36L33.82 25.28C35.7 22.76 38.7 21.26 41.85 21.26H67.7C71.65 21.26 75.24 23.59 76.85 27.19L82.04 38.78C82.12 38.95 82.22 39.1 82.36 39.24L88.63 45.43C89.59 46.38 90.14 47.7 90.14 49.05V57.59L90.13 57.57Z" fill="black"/>
<path d="M42.29 24.54C40.05 24.54 37.97 25.64 36.72 27.49L29.45 38.21C29.14 38.67 29.11 39.26 29.37 39.75C29.63 40.24 30.14 40.55 30.7 40.55H51.41C52.24 40.55 52.91 39.88 52.91 39.05V26.04C52.91 25.21 52.24 24.54 51.41 24.54H42.29ZM49.89 37.55H33.51L39.19 29.17C39.89 28.14 41.04 27.53 42.28 27.53H49.88V37.54L49.89 37.55Z" fill="black"/>
<path d="M71.59 26.7C70.84 25.37 69.42 24.54 67.89 24.54H58.35C57.52 24.54 56.85 25.21 56.85 26.04V39.05C56.85 39.88 57.52 40.55 58.35 40.55H76.8C77.33 40.55 77.83 40.27 78.09 39.81C78.36 39.35 78.36 38.78 78.1 38.32L71.58 26.7H71.59ZM59.85 37.55V27.54H67.89C68.34 27.54 68.75 27.78 68.97 28.17L74.24 37.55H59.85Z" fill="black"/>
<path d="M14.12 15.7C14.01 14.97 13.38 14.43 12.64 14.43C11.88 14.41 11.27 14.97 11.15 15.7C11.14 15.77 10.02 22.51 5.37 23.64C4.7 23.8 4.22 24.41 4.22 25.1C4.22 25.79 4.69 26.39 5.37 26.56C10.01 27.68 11.14 34.43 11.15 34.49C11.26 35.22 11.89 35.76 12.63 35.76C13.37 35.76 14 35.22 14.11 34.49C14.12 34.42 15.24 27.68 19.89 26.55C20.56 26.39 21.04 25.78 21.04 25.09C21.04 24.4 20.57 23.8 19.89 23.63C15.25 22.51 14.13 15.76 14.11 15.7H14.12ZM12.64 29.46C11.89 27.91 10.79 26.28 9.19 25.1C10.78 23.92 11.89 22.28 12.64 20.74C13.39 22.29 14.49 23.92 16.09 25.1C14.5 26.28 13.39 27.92 12.64 29.46Z" fill="black"/>
<path d="M5.16 15.44C5.27 16.17 5.9 16.71 6.64 16.71C7.38 16.71 8.01 16.17 8.12 15.44C8.12 15.4 8.85 11.18 11.63 10.51C12.3 10.35 12.78 9.74 12.78 9.05C12.78 8.36 12.31 7.76 11.63 7.59C8.83 6.91 8.12 2.7 8.12 2.66C8.01 1.93 7.38 1.39 6.64 1.39C5.9 1.39 5.27 1.93 5.16 2.65C5.16 2.69 4.44 6.91 1.65 7.59C0.98 7.75 0.5 8.36 0.5 9.05C0.5 9.74 0.97 10.34 1.65 10.51C4.45 11.19 5.16 15.4 5.16 15.44ZM6.64 7.14C7.04 7.82 7.55 8.48 8.19 9.05C7.56 9.62 7.05 10.28 6.64 10.96C6.24 10.28 5.73 9.62 5.09 9.05C5.72 8.48 6.23 7.82 6.64 7.14Z" fill="black"/>
<path d="M25.02 25.79C25.76 25.79 26.39 25.25 26.5 24.52C26.51 24.43 27.94 15.81 33.96 14.35C34.63 14.19 35.11 13.58 35.11 12.89C35.11 12.2 34.64 11.6 33.96 11.43C27.94 9.97 26.52 1.35 26.5 1.27C26.39 0.54 25.76 0 25.02 0C24.28 0 23.65 0.54 23.54 1.27C23.53 1.36 22.1 9.98 16.08 11.44C15.41 11.6 14.93 12.21 14.93 12.9C14.93 13.59 15.4 14.19 16.08 14.36C22.1 15.82 23.52 24.44 23.54 24.52C23.65 25.25 24.28 25.79 25.02 25.79ZM20.1 12.9C22.51 11.28 24.05 8.81 25.02 6.61C25.99 8.82 27.53 11.28 29.94 12.9C27.53 14.52 25.99 16.99 25.02 19.19C24.05 16.98 22.51 14.52 20.1 12.9Z" fill="black"/>
</g>
</svg>
