<svg width="93" height="88" viewBox="0 0 93 88" fill="none" xmlns="http://www.w3.org/2000/svg">
<g id="Vector">
<path d="M92.99 19.49V6.75C92.99 3.03 89.96 0 86.24 0H80.24C76.52 0 73.49 3.03 73.49 6.75V19.48C73.49 22.42 75.39 24.93 78.02 25.85V29.5L71.75 30.78C68.7 31.4 66.3 33.89 65.79 36.96L60.67 67.92L40.34 66.77C37.66 66.62 35.11 67.67 33.31 69.64C31.51 71.61 30.71 74.26 31.1 76.91L31.86 81.93C32.32 85.01 34.92 87.24 38.03 87.24H78.98C82.55 87.24 85.45 84.34 85.45 80.77V75.63L92.74 37.15C93.21 34.67 92.42 32.12 90.62 30.35C90.26 30 89.87 29.7 89.45 29.42V25.41C91.55 24.27 92.98 22.04 92.98 19.48L92.99 19.49ZM82.46 80.78C82.46 82.7 80.9 84.25 78.99 84.25H38.04C36.42 84.25 35.08 83.09 34.84 81.49L34.08 76.47C33.82 74.72 34.35 72.98 35.54 71.67C36.65 70.45 38.21 69.76 39.85 69.76C39.96 69.76 40.07 69.76 40.18 69.76L79.18 71.96C81.02 72.06 82.46 73.59 82.46 75.43V80.78ZM89.8 36.6L83.35 70.68C82.29 69.71 80.9 69.08 79.35 68.99L63.69 68.11L68.76 37.47C69.07 35.61 70.51 34.11 72.36 33.74L84.4 31.28C85.92 30.97 87.42 31.42 88.52 32.5C89.62 33.59 90.09 35.08 89.8 36.61V36.6ZM81.03 28.89V26.23H86.24C86.31 26.23 86.38 26.23 86.46 26.22V28.27C85.59 28.14 84.69 28.15 83.79 28.33L81.02 28.89H81.03ZM86.24 23.23H80.24C78.17 23.23 76.49 21.55 76.49 19.48V6.75C76.49 4.68 78.17 3 80.24 3H86.24C88.31 3 89.99 4.68 89.99 6.75V19.48C89.99 21.55 88.31 23.23 86.24 23.23Z" fill="black"/>
<path d="M8.67 87.25H19.31C24.1 87.25 27.99 83.36 27.99 78.57V50.39C27.99 47 25.23 44.25 21.85 44.25H21.74C19.76 39.99 16.16 30.39 18.2 25.75C18.73 24.54 19.63 23.78 20.94 23.4C28.2 21.33 34.28 26.42 36.44 28.55L35.95 29.15C35.48 29.73 35.5 30.56 36 31.11L44.33 40.26L42.83 42.09C42.58 42.4 42.46 42.79 42.5 43.19C42.54 43.59 42.73 43.95 43.04 44.2L48.53 48.69C48.81 48.92 49.15 49.03 49.48 49.03C49.91 49.03 50.35 48.84 50.64 48.48L63.31 33C63.56 32.69 63.68 32.3 63.64 31.9C63.6 31.5 63.41 31.14 63.1 30.89L57.61 26.4C56.97 25.87 56.02 25.97 55.5 26.61L54 28.44L43.39 22.08C42.75 21.7 41.93 21.84 41.46 22.42L41.42 22.47C38.41 19.52 30.1 12.93 17.81 15.51C14.33 16.24 11.79 18.1 10.24 21.02C6.46 28.18 9.93 39.86 11.54 44.42C5.01 45.44 0 51.08 0 57.88V78.56C0 83.35 3.89 87.24 8.68 87.24L8.67 87.25ZM56.87 29.68L60.03 32.27L49.26 45.43L46.1 42.84L56.87 29.68ZM39.59 29.44L42.65 25.7L42.95 25.33L52.07 30.79L46.24 37.91L39.08 30.05L39.58 29.44H39.59ZM12.89 22.43C14.02 20.3 15.83 19 18.43 18.45C29.64 16.1 37.12 22.38 39.51 24.8L38.35 26.22C35.64 23.56 28.73 18.07 20.12 20.53C17.93 21.16 16.36 22.51 15.46 24.55C12.97 30.19 16.59 39.92 18.46 44.26H14.67C13.41 40.86 9.45 28.95 12.89 22.44V22.43ZM2.99 57.9C2.99 52.03 7.76 47.26 13.63 47.26H21.84C23.57 47.26 24.98 48.67 24.98 50.4V78.58C24.98 81.71 22.43 84.26 19.3 84.26H8.67C5.54 84.26 2.99 81.71 2.99 78.58V57.9Z" fill="black"/>
<path d="M14.58 81.08C19.22 81.08 22.99 77.31 22.99 72.67C22.99 68.03 19.22 64.26 14.58 64.26C9.94 64.26 6.17 68.03 6.17 72.67C6.17 77.31 9.94 81.08 14.58 81.08ZM14.58 67.26C17.56 67.26 19.99 69.69 19.99 72.67C19.99 75.65 17.56 78.08 14.58 78.08C11.6 78.08 9.17 75.65 9.17 72.67C9.17 69.69 11.6 67.26 14.58 67.26Z" fill="black"/>
</g>
</svg>
