<svg width="94" height="93" viewBox="0 0 94 93" fill="none" xmlns="http://www.w3.org/2000/svg">
<g id="Vector">
<path d="M68.3814 53.73C68.3814 42.1 71.6314 35.76 73.5714 33.01C75.1314 30.81 74.9214 27.73 73.0914 25.7L72.9614 25.56C70.8014 23.16 67.1614 22.97 64.6914 25.13C62.0814 27.4 59.4914 28.43 56.9914 28.18C53.3314 27.83 50.2814 24.82 48.3714 22.36C47.2414 20.91 45.5514 20.08 43.7414 20.08C41.9314 20.08 40.2314 20.91 39.1114 22.36C37.2014 24.82 34.1514 27.83 30.4914 28.18C27.9914 28.42 25.4014 27.4 22.7914 25.13C20.3114 22.97 16.6814 23.16 14.5114 25.57L14.3914 25.71C12.5614 27.75 12.3614 30.82 13.9114 33.02C15.8514 35.76 19.1014 42.11 19.1014 53.74C19.1014 56.15 18.9614 58.41 18.7214 60.52L18.1414 60.71L13.0814 45.58C12.1114 42.67 8.95144 41.1 6.04144 42.07C3.13144 43.04 1.56144 46.2 2.53144 49.11L7.59144 64.24L4.88144 65.15C1.52144 66.27 -0.288557 69.92 0.831443 73.27L3.28144 80.58C5.90144 88.41 12.0914 92.51 12.3514 92.69C12.6014 92.85 12.8814 92.93 13.1714 92.93C13.3314 92.93 13.4914 92.9 13.6514 92.85L23.8714 89.43C24.3214 89.28 24.6714 88.93 24.8214 88.48C24.9714 88.03 24.9014 87.54 24.6414 87.16L24.2014 86.53C23.9914 86.24 23.8114 85.98 23.6514 85.72C23.8414 85.56 24.0314 85.41 24.2214 85.27C25.9314 85.78 28.0414 86.39 30.3414 87.01C30.6314 87.09 30.9314 87.08 31.2114 86.98L37.5314 84.87C38.2114 85.39 38.8914 86 39.5614 86.7C40.6714 87.85 42.1614 88.49 43.7614 88.49C45.3614 88.49 46.8514 87.86 47.9614 86.7C53.2414 81.23 58.8714 81.14 64.6914 86.43C65.8814 87.51 67.4114 88.06 68.9914 87.98C70.5414 87.9 71.9614 87.23 73.0014 86.08L73.5414 85.48C75.2214 83.62 75.5314 80.91 74.3114 78.73C72.1014 74.77 68.4014 66.26 68.4014 53.74L68.3814 53.73ZM5.37144 48.15C4.92144 46.81 5.65144 45.36 6.98144 44.91C7.25144 44.82 7.52144 44.78 7.79144 44.78C8.86144 44.78 9.86144 45.46 10.2214 46.53L15.2814 61.66L10.4314 63.28L5.37144 48.15ZM3.67144 72.31C3.38144 71.44 3.45144 70.52 3.85144 69.7C4.26144 68.88 4.96144 68.27 5.83144 67.98L21.7914 62.64C22.1514 62.52 22.5114 62.46 22.8814 62.46C23.4014 62.46 23.9214 62.58 24.4014 62.82C25.2214 63.23 25.8314 63.93 26.1214 64.8L28.0914 70.69L5.65144 78.2L3.68144 72.31H3.67144ZM30.6614 83.99C25.3314 82.54 21.0714 81.18 21.0314 81.16C20.4914 80.99 19.9014 81.13 19.5014 81.53C19.1014 81.93 18.9614 82.52 19.1414 83.06C19.8514 85.2 20.3714 86.22 21.0114 87.21L13.4114 89.75C12.0614 88.71 8.63144 85.72 6.64144 81.02L29.3414 73.43C30.4814 75.02 33.1414 78.12 38.3314 81.42L30.6414 83.99H30.6614ZM71.2814 83.46L70.7414 84.06C70.2414 84.61 69.5614 84.94 68.8114 84.98C68.0214 85.02 67.2714 84.74 66.6814 84.21C57.1714 75.56 49.5014 80.75 45.7714 84.62C44.6914 85.74 42.7614 85.74 41.6814 84.62C41.4114 84.34 41.1214 84.05 40.8114 83.76L42.4114 83.22C42.9814 83.03 43.3714 82.53 43.4314 81.93C43.4814 81.34 43.1814 80.77 42.6614 80.48C39.3714 78.68 36.9514 76.88 35.2114 75.34C36.1414 75.67 37.0414 76.12 37.9114 76.69C38.1614 76.86 38.4514 76.94 38.7414 76.94C39.2314 76.94 39.7014 76.7 39.9914 76.27C40.4514 75.58 40.2614 74.65 39.5714 74.19C38.3114 73.35 36.9614 72.72 35.5814 72.3C34.7814 72.06 33.9514 72.51 33.7114 73.3C33.6514 73.48 33.6414 73.67 33.6514 73.85C33.2514 73.44 32.9114 73.06 32.6214 72.72C32.5114 72.37 32.2714 72.07 31.9614 71.89C31.6414 71.46 31.4514 71.16 31.3714 71.03L28.9714 63.86C28.7014 63.07 28.2914 62.35 27.7614 61.73C27.8114 60.94 27.8614 60.14 27.8914 59.31C27.9214 58.48 27.2814 57.78 26.4514 57.75C25.6214 57.72 24.9214 58.36 24.8914 59.19C24.8914 59.4 24.8714 59.6 24.8614 59.8C23.8814 59.48 22.8414 59.4 21.8214 59.57C21.9914 57.72 22.0914 55.79 22.0914 53.74C22.0914 41.9 18.9714 35 16.3514 31.29C15.6014 30.22 15.7014 28.72 16.6114 27.71L16.7314 27.57C17.7814 26.4 19.5714 26.32 20.8114 27.39C24.0614 30.22 27.4114 31.5 30.7714 31.16C34.5114 30.8 38.2114 28.39 41.4714 24.2C42.0214 23.49 42.8514 23.08 43.7414 23.08C44.6314 23.08 45.4514 23.49 46.0114 24.2C49.2714 28.39 52.9714 30.8 56.7114 31.16C60.0714 31.49 63.4214 30.22 66.6714 27.39C67.9014 26.32 69.6914 26.4 70.7414 27.56L70.8714 27.7C71.7714 28.7 71.8814 30.21 71.1314 31.28C68.5114 34.99 65.3914 41.89 65.3914 53.73C65.3914 66.93 69.3314 75.97 71.6814 80.18C72.2714 81.23 72.1114 82.55 71.3014 83.46H71.2814Z" fill="black"/>
<path d="M26.8014 35.02C24.8514 35.2 23.3214 36.83 23.3214 38.72C23.3214 39.03 23.3614 39.35 23.4414 39.66L24.9114 39.35L23.4614 39.72C23.6314 40.4 24.2414 40.85 24.9114 40.85C25.0314 40.85 25.1614 40.83 25.2814 40.8C26.0814 40.6 26.5714 39.78 26.3614 38.98C26.3614 38.98 26.3414 38.88 26.3314 38.88C26.3114 38.82 26.3114 38.76 26.3114 38.71C26.3114 38.36 26.6514 38.04 27.0714 38C27.8914 37.92 28.5014 37.19 28.4214 36.37C28.3414 35.54 27.6114 34.94 26.7914 35.02H26.8014Z" fill="black"/>
<path d="M44.3314 77.27C44.0014 77.56 43.3614 77.53 43.0614 77.22L42.8514 77C42.2814 76.4 41.3314 76.37 40.7314 76.94C40.1314 77.51 40.1014 78.46 40.6714 79.06L40.8514 79.25C41.5714 80.04 42.6214 80.49 43.7214 80.49C44.6914 80.49 45.6114 80.15 46.3114 79.52C46.9314 78.97 46.9914 78.02 46.4414 77.4C45.8914 76.78 44.9414 76.72 44.3214 77.27H44.3314Z" fill="black"/>
<path d="M26.1614 48.75C26.1614 48.75 26.2414 48.75 26.2914 48.75C27.1214 48.68 27.7314 47.96 27.6614 47.13C27.5414 45.68 27.3814 44.31 27.1914 43.06C27.0714 42.24 26.3014 41.68 25.4814 41.8C24.6614 41.92 24.1014 42.69 24.2214 43.51C24.4014 44.7 24.5514 46 24.6614 47.39C24.7314 48.17 25.3814 48.76 26.1514 48.76L26.1614 48.75Z" fill="black"/>
<path d="M60.6814 72.11C60.4914 72.2 60.2814 72.21 60.0714 72.16C58.6114 71.8 57.1614 71.63 55.7114 71.67C54.8814 71.69 54.2314 72.38 54.2514 73.21C54.2714 74.04 55.0014 74.69 55.7914 74.67H56.1414C57.1914 74.67 58.2714 74.8 59.3514 75.07C59.6614 75.15 59.9914 75.19 60.3114 75.19C60.8714 75.19 61.4214 75.07 61.9314 74.84C62.6814 74.5 63.0114 73.61 62.6714 72.85C62.3314 72.1 61.4414 71.77 60.6814 72.11Z" fill="black"/>
<path d="M61.2614 47.65C61.3114 47.65 61.3614 47.65 61.4114 47.65C62.1714 47.65 62.8214 47.07 62.9014 46.3C63.0414 44.92 63.2114 43.62 63.4114 42.44C63.5514 41.62 63.0014 40.85 62.1914 40.71C61.3814 40.57 60.6014 41.12 60.4614 41.93C60.2414 43.18 60.0614 44.55 59.9214 46C59.8414 46.82 60.4414 47.56 61.2614 47.64V47.65Z" fill="black"/>
<path d="M63.1414 65.91C63.0314 65.09 62.2814 64.52 61.4514 64.62C60.6314 64.73 60.0514 65.48 60.1614 66.31C60.3614 67.79 60.6014 69.16 60.8914 70.39C61.0514 71.08 61.6714 71.55 62.3514 71.55C62.4614 71.55 62.5814 71.54 62.6914 71.51C63.5014 71.32 64.0014 70.52 63.8114 69.71C63.5514 68.58 63.3214 67.3 63.1314 65.91H63.1414Z" fill="black"/>
<path d="M59.3214 35.12L59.1014 35.17C58.2914 35.35 57.7914 36.16 57.9714 36.96C58.1514 37.77 58.9614 38.27 59.7614 38.09L60.0414 38.02C60.5814 37.89 61.0514 38.24 61.1214 38.58C61.2814 39.28 61.8914 39.76 62.5814 39.76C62.6914 39.76 62.8014 39.75 62.9114 39.72C63.7214 39.54 64.2314 38.74 64.0514 37.93C63.6014 35.92 61.4214 34.59 59.3214 35.1V35.12Z" fill="black"/>
<path d="M26.3414 49.74C25.5114 49.77 24.8714 50.47 24.9014 51.3C24.9514 52.48 24.9714 53.75 24.9814 55.11V55.22C24.9814 56.05 25.6414 56.73 26.4614 56.74H26.4814C27.3014 56.74 27.9714 56.08 27.9814 55.26V55.09C27.9814 53.7 27.9414 52.4 27.9014 51.19C27.8714 50.36 27.1414 49.73 26.3414 49.75V49.74Z" fill="black"/>
<path d="M44.2614 32.85C44.2614 32.85 44.3514 32.92 44.3914 32.96C45.2714 33.92 46.2114 34.77 47.1814 35.49C47.4514 35.69 47.7614 35.78 48.0714 35.78C48.5314 35.78 48.9814 35.57 49.2814 35.17C49.7714 34.5 49.6314 33.56 48.9714 33.07C48.1614 32.47 47.3614 31.75 46.6114 30.93C46.4114 30.72 46.1914 30.53 45.9614 30.36C45.2714 29.89 44.3414 30.07 43.8814 30.76C43.4114 31.45 43.5914 32.38 44.2814 32.84L44.2614 32.85Z" fill="black"/>
<path d="M42.6214 31.29C42.0314 30.71 41.0814 30.73 40.5014 31.32C39.6114 32.24 38.6614 33.02 37.6914 33.63C36.9914 34.07 36.7814 35 37.2314 35.7C37.5214 36.15 38.0014 36.4 38.5014 36.4C38.7714 36.4 39.0514 36.32 39.3014 36.17C40.4714 35.43 41.6014 34.5 42.6514 33.41C43.2314 32.82 43.2114 31.87 42.6214 31.29Z" fill="black"/>
<path d="M59.4914 54.12C59.4814 54.95 60.1414 55.63 60.9714 55.64H60.9914C61.8114 55.64 62.4814 54.98 62.4914 54.16C62.5114 52.79 62.5514 51.46 62.6114 50.22C62.6514 49.39 62.0114 48.69 61.1914 48.65C60.3714 48.6 59.6614 49.25 59.6214 50.07C59.5614 51.35 59.5214 52.71 59.5014 54.12H59.4914Z" fill="black"/>
<path d="M34.4514 35.09C33.4414 35.37 32.3914 35.51 31.3114 35.51C31.1814 35.51 31.0614 35.51 30.9414 35.51C30.1114 35.44 29.4214 36.13 29.3914 36.96C29.3614 37.79 30.0114 38.48 30.8414 38.51C30.9814 38.51 31.1314 38.51 31.2714 38.51C32.6414 38.49 33.9614 38.33 35.2514 37.98C36.0514 37.76 36.5114 36.93 36.2914 36.13C36.0714 35.33 35.2414 34.87 34.4414 35.09H34.4514Z" fill="black"/>
<path d="M51.0414 37.6C52.4314 38.12 53.9014 38.42 55.3914 38.49C55.4214 38.49 55.4414 38.49 55.4714 38.49C56.2614 38.49 56.9314 37.87 56.9714 37.07C57.0114 36.24 56.3714 35.54 55.5514 35.5C54.3614 35.44 53.2014 35.2 52.1014 34.79C51.3314 34.5 50.4614 34.9 50.1714 35.67C49.8814 36.45 50.2814 37.31 51.0514 37.6H51.0414Z" fill="black"/>
<path d="M60.9914 56.64C60.1614 56.67 59.5114 57.36 59.5414 58.19C59.5814 59.61 59.6514 60.97 59.7514 62.25C59.8114 63.04 60.4714 63.64 61.2414 63.64C61.2814 63.64 61.3114 63.64 61.3514 63.64C62.1814 63.58 62.8014 62.86 62.7414 62.03C62.6514 60.8 62.5814 59.47 62.5414 58.1C62.5114 57.27 61.8614 56.63 60.9914 56.65V56.64Z" fill="black"/>
<path d="M51.3414 72.47C49.9814 72.94 48.6714 73.63 47.4314 74.51C46.7514 74.99 46.6014 75.93 47.0814 76.6C47.3714 77.01 47.8314 77.23 48.3014 77.23C48.6014 77.23 48.9014 77.14 49.1714 76.95C50.1814 76.24 51.2414 75.68 52.3314 75.3C53.1114 75.03 53.5314 74.17 53.2514 73.39C52.9814 72.61 52.1214 72.19 51.3414 72.47Z" fill="black"/>
<path d="M53.3014 11.81C57.7514 12.89 58.8314 19.37 58.8414 19.43C58.9514 20.16 59.5814 20.7 60.3214 20.7C61.0614 20.7 61.6914 20.16 61.8014 19.43C61.8114 19.37 62.8614 12.89 67.3414 11.81C68.0114 11.65 68.4914 11.04 68.4914 10.35C68.4914 9.66 68.0214 9.06 67.3414 8.89C62.8914 7.81 61.8114 1.33 61.8014 1.27C61.6914 0.54 61.0614 0 60.3214 0C59.5814 0 58.9514 0.54 58.8414 1.27C58.8314 1.34 57.7514 7.82 53.3014 8.89C52.6314 9.05 52.1514 9.66 52.1514 10.35C52.1514 11.04 52.6214 11.64 53.3014 11.81ZM60.3214 6.25C61.0414 7.71 62.0814 9.23 63.5714 10.35C62.0814 11.47 61.0414 13 60.3214 14.45C59.6014 13 58.5614 11.47 57.0714 10.35C58.5614 9.23 59.6014 7.7 60.3214 6.25Z" fill="black"/>
<path d="M92.1714 36.45C89.2214 35.74 88.4814 31.32 88.4714 31.28C88.3614 30.55 87.7314 30.01 86.9914 30.01C86.3014 30.02 85.6214 30.55 85.5014 31.27C85.5014 31.31 84.7514 35.74 81.8014 36.45C81.1314 36.61 80.6514 37.22 80.6514 37.91C80.6514 38.6 81.1214 39.2 81.8014 39.37C84.7514 40.08 85.4914 44.5 85.5014 44.54C85.6114 45.27 86.2414 45.81 86.9814 45.81C87.7214 45.81 88.3414 45.27 88.4614 44.55C88.4614 44.51 89.2114 40.08 92.1614 39.37C92.8314 39.21 93.3114 38.6 93.3114 37.91C93.3114 37.22 92.8414 36.62 92.1614 36.45H92.1714ZM86.9914 40.01C86.5514 39.27 86.0014 38.53 85.2914 37.91C85.9914 37.29 86.5514 36.55 86.9914 35.81C87.4314 36.55 87.9814 37.29 88.6914 37.91C87.9914 38.53 87.4314 39.27 86.9914 40.01Z" fill="black"/>
<path d="M92.3414 15.04C84.1114 13.05 82.1814 1.38 82.1714 1.27C82.0614 0.54 81.4314 0 80.6914 0C79.9514 0 79.3214 0.54 79.2114 1.27C79.1914 1.39 77.3014 13.04 69.0414 15.04C68.3714 15.2 67.8914 15.81 67.8914 16.5C67.8914 17.19 68.3614 17.79 69.0414 17.96C77.2714 19.95 79.2014 31.62 79.2114 31.73C79.3214 32.46 79.9514 33 80.6914 33C81.4314 33 82.0614 32.46 82.1714 31.73C82.1914 31.61 84.0814 19.96 92.3414 17.96C93.0114 17.8 93.4914 17.19 93.4914 16.5C93.4914 15.81 93.0214 15.21 92.3414 15.04ZM80.6814 26.01C79.4114 22.76 77.1614 18.78 73.3114 16.49C77.1614 14.21 79.4114 10.23 80.6814 6.97C81.9514 10.22 84.2014 14.2 88.0514 16.49C84.2014 18.77 81.9514 22.75 80.6814 26.01Z" fill="black"/>
</g>
</svg>
