<svg width="93" height="94" viewBox="0 0 93 94" fill="none" xmlns="http://www.w3.org/2000/svg">
<g id="Vector">
<path d="M0.159888 34.65L14.3699 62.73C14.3699 62.73 14.3899 62.78 14.3999 62.8L17.3699 68.67C17.5699 69.06 17.9299 69.35 18.3599 69.45C18.7899 69.55 19.2399 69.45 19.5999 69.2C19.6799 69.14 27.5599 63.49 43.4399 62.93V71.72C43.4399 74.75 45.9099 77.22 48.9399 77.22H51.4399V82.46C51.4399 88.47 56.3299 93.36 62.3399 93.36H67.2799C73.2899 93.36 78.1799 88.47 78.1799 82.46V77.22H78.9899C82.0199 77.22 84.4899 74.75 84.4899 71.72V51.23C84.4899 50.07 84.1199 48.99 83.4999 48.1L90.2999 34.66C90.6099 34.04 90.4599 33.29 89.9299 32.84C89.5099 32.48 82.9599 27.03 70.9599 23.12C72.0799 22.15 73.4099 21.38 74.9899 21C75.6599 20.84 76.1399 20.23 76.1399 19.54C76.1399 18.85 75.6699 18.25 74.9899 18.08C67.2699 16.21 65.4599 5.25 65.4399 5.14C65.3299 4.41 64.6999 3.87 63.9599 3.87C63.2199 3.87 62.5899 4.41 62.4799 5.14C62.4599 5.25 60.6799 16.2 52.9299 18.08C52.2999 18.23 51.8599 18.77 51.8099 19.4C49.6999 19.24 47.5099 19.15 45.2299 19.15C16.9499 19.15 1.17989 32.28 0.529889 32.84C-0.000111461 33.29 -0.150112 34.04 0.159888 34.66V34.65ZM75.1699 82.45C75.1699 86.8 71.6299 90.35 67.2699 90.35H62.3299C57.9799 90.35 54.4299 86.81 54.4299 82.45V68.33C54.4299 68.05 54.5499 67.78 54.7499 67.58C54.8699 67.47 55.0599 67.34 55.3099 67.34C55.3099 67.34 55.3299 67.34 55.3399 67.34C55.5599 67.34 55.7699 67.44 55.9299 67.6C56.0899 67.76 56.1799 67.98 56.1799 68.21V77.57C56.1799 78.4 56.8499 79.07 57.6799 79.07C58.5099 79.07 59.1799 78.4 59.1799 77.57V60.22C59.1799 59.94 59.2999 59.67 59.4999 59.47C59.6199 59.35 59.8199 59.21 60.0799 59.23C60.2999 59.23 60.5099 59.33 60.6599 59.48C60.8299 59.65 60.9199 59.87 60.9199 60.11V72.89C60.9199 73.72 61.5899 74.39 62.4199 74.39C63.2499 74.39 63.9199 73.72 63.9199 72.89V55.47C63.9199 55.19 64.0399 54.92 64.2399 54.72C64.3599 54.61 64.5699 54.47 64.8299 54.48C65.0499 54.48 65.2599 54.58 65.4099 54.73C65.5799 54.9 65.6699 55.12 65.6699 55.36V72.89C65.6699 73.72 66.3399 74.39 67.1699 74.39C67.9999 74.39 68.6699 73.72 68.6699 72.89V58.79C68.6699 58.31 69.0599 57.92 69.5399 57.92C69.7699 57.92 69.9899 58.01 70.1599 58.18C70.3199 58.34 70.4099 58.56 70.4099 58.8V72.9C70.4099 73.73 71.0799 74.4 71.9099 74.4C72.7399 74.4 73.4099 73.73 73.4099 72.9V64.2C73.4099 63.72 73.7999 63.33 74.2799 63.33C74.5099 63.33 74.7399 63.42 74.8899 63.58C75.0599 63.75 75.1499 63.97 75.1499 64.21V82.46L75.1699 82.45ZM81.4799 71.71C81.4799 73.09 80.3599 74.21 78.9799 74.21H78.1699V64.2C78.1699 63.17 77.7699 62.2 77.0299 61.45C76.0799 60.51 74.6599 60.14 73.4199 60.42V58.8C73.4199 57.77 73.0199 56.79 72.2899 56.06C71.3399 55.11 69.9099 54.73 68.6599 55.03C68.5799 54.13 68.1899 53.29 67.5399 52.62C66.8399 51.93 65.9199 51.53 64.9499 51.5C63.9099 51.47 62.9299 51.85 62.1699 52.58C61.3799 53.34 60.9299 54.4 60.9299 55.48V56.34C60.6899 56.28 60.4499 56.25 60.1999 56.24C59.1599 56.2 58.1799 56.59 57.4199 57.32C56.6299 58.08 56.1799 59.14 56.1799 60.22V64.43C55.9399 64.37 55.6999 64.34 55.4499 64.33C54.4099 64.3 53.4299 64.68 52.6699 65.41C51.8799 66.17 51.4299 67.23 51.4299 68.31V74.19H48.9299C47.5499 74.19 46.4299 73.07 46.4299 71.69V51.2C46.4299 49.82 47.5499 48.7 48.9299 48.7H78.9799C80.3599 48.7 81.4799 49.82 81.4799 51.2V71.71ZM87.0599 34.4L81.1099 46.15C80.4499 45.87 79.7299 45.72 78.9799 45.72H54.4999L59.9999 26.98C61.8799 30.36 62.4599 33.86 62.4699 33.93C62.5799 34.66 63.2099 35.2 63.9499 35.2C64.6899 35.2 65.3199 34.66 65.4299 33.93C65.4399 33.86 66.1899 29.35 68.7499 25.61C78.5199 28.63 84.7999 32.76 87.0499 34.4H87.0599ZM63.9599 10.76C65.1599 13.78 67.2499 17.39 70.7599 19.53C67.2499 21.66 65.1599 25.28 63.9599 28.3C62.7599 25.28 60.6699 21.67 57.1599 19.53C60.6699 17.4 62.7599 13.78 63.9599 10.76ZM56.7699 22.95C57.1299 23.25 57.4699 23.57 57.7899 23.9L51.3799 45.72H48.9399C45.9099 45.72 43.4399 48.19 43.4399 51.22V59.91C41.5999 59.97 39.8599 60.09 38.2299 60.27L49.3999 22.24C51.9799 22.37 54.4399 22.61 56.7799 22.94L56.7699 22.95ZM45.2199 22.14C45.5799 22.14 45.9299 22.14 46.2799 22.15L34.9599 60.7C29.4599 61.58 25.3099 63 22.4699 64.25L34.6399 22.81C37.9399 22.39 41.4699 22.14 45.2299 22.14H45.2199ZM31.3599 23.3L19.0299 65.31L17.2999 61.9L28.4799 23.86C29.4199 23.66 30.3799 23.48 31.3699 23.31L31.3599 23.3ZM25.1099 24.64L15.3199 57.99L3.39989 34.4C5.89989 32.57 13.3899 27.66 25.1299 24.64H25.1099Z" fill="black"/>
<path d="M68.0999 36.96C68.0999 37.65 68.5699 38.25 69.2499 38.42C71.8599 39.05 72.5199 43.01 72.5299 43.04C72.6399 43.77 73.2699 44.31 74.0099 44.31C74.7499 44.31 75.3799 43.77 75.4899 43.04C75.4899 43 76.1799 39.05 78.7699 38.42C79.4399 38.26 79.9199 37.65 79.9199 36.96C79.9199 36.27 79.4499 35.67 78.7699 35.5C76.1599 34.87 75.4999 30.91 75.4899 30.88C75.3799 30.15 74.7499 29.61 74.0099 29.61C73.2699 29.61 72.6499 30.15 72.5299 30.87C72.5299 30.91 71.8599 34.86 69.2499 35.5C68.5799 35.66 68.0999 36.27 68.0999 36.96ZM74.0099 35.29C74.3699 35.88 74.8199 36.46 75.3699 36.96C74.8199 37.46 74.3799 38.04 74.0099 38.63C73.6499 38.04 73.1999 37.46 72.6499 36.96C73.1999 36.46 73.6399 35.88 74.0099 35.29Z" fill="black"/>
<path d="M91.8499 10.39C86.4699 9.09 85.1899 1.34 85.1799 1.27C85.0699 0.54 84.4399 0 83.6999 0C82.9599 0 82.3299 0.54 82.2199 1.27C82.2099 1.35 80.9199 9.1 75.5499 10.4C74.8799 10.56 74.3999 11.17 74.3999 11.86C74.3999 12.55 74.8699 13.15 75.5499 13.32C80.9299 14.62 82.2099 22.37 82.2199 22.44C82.3299 23.17 82.9599 23.71 83.6999 23.71C84.4399 23.71 85.0699 23.17 85.1799 22.44C85.1899 22.36 86.4799 14.62 91.8499 13.31C92.5199 13.15 92.9999 12.54 92.9999 11.85C92.9999 11.16 92.5299 10.56 91.8499 10.39ZM83.6899 17.23C82.8199 15.33 81.4799 13.26 79.4599 11.85C81.4799 10.43 82.8199 8.36 83.6899 6.47C84.5599 8.37 85.8999 10.44 87.9199 11.85C85.8999 13.27 84.5599 15.34 83.6899 17.23Z" fill="black"/>
</g>
</svg>
