<svg width="94" height="88" viewBox="0 0 94 88" fill="none" xmlns="http://www.w3.org/2000/svg">
<g id="Vector">
<path d="M73.7727 6.75V19.48C73.7727 22.42 75.6727 24.93 78.3027 25.85V29.5L72.0327 30.78C68.9827 31.4 66.5827 33.89 66.0727 36.96L60.9227 68.1L33.7027 66.77C30.4327 66.6 27.2827 67.88 25.2727 70.16C23.5627 72.1 22.8527 74.51 23.2827 76.95L24.1627 81.97C24.6927 85.03 27.6027 87.24 31.0627 87.24H78.4827C82.4827 87.24 85.7427 84.34 85.7427 80.77V75.63L93.0327 37.15C93.5027 34.67 92.7127 32.12 90.9127 30.35C90.5527 30 90.1627 29.7 89.7427 29.43V25.42C91.8427 24.28 93.2727 22.05 93.2727 19.49V6.75C93.2727 3.03 90.2427 0 86.5227 0H80.5227C76.8027 0 73.7727 3.03 73.7727 6.75ZM82.7327 80.78C82.7327 82.7 80.8227 84.25 78.4727 84.25H31.0627C29.0927 84.25 27.3927 83.05 27.1127 81.46L26.2327 76.44C25.9627 74.92 26.4227 73.4 27.5227 72.15C28.8527 70.64 30.9327 69.76 33.1527 69.76C33.2927 69.76 33.4227 69.76 33.5627 69.76L66.0427 71.34C66.6227 75 69.8027 77.81 73.6227 77.81C77.0027 77.81 79.8727 75.61 80.9027 72.58C82.0127 73.21 82.7427 74.25 82.7427 75.43V80.76L82.7327 80.78ZM68.9327 70.15C68.9327 67.57 71.0327 65.47 73.6127 65.47C76.1927 65.47 78.2927 67.57 78.2927 70.15C78.2927 72.73 76.1927 74.83 73.6127 74.83C71.0327 74.83 68.9327 72.73 68.9327 70.15ZM90.0727 36.6L83.5827 70.86C82.9227 70.28 82.1427 69.8 81.2627 69.48C80.9227 65.56 77.6227 62.47 73.6127 62.47C69.9927 62.47 66.9527 64.99 66.1427 68.37L63.9327 68.26L69.0227 37.46C69.3327 35.6 70.7727 34.1 72.6227 33.73L84.6627 31.27C86.1827 30.96 87.6827 31.41 88.7827 32.49C89.8827 33.58 90.3527 35.07 90.0627 36.6H90.0727ZM81.3027 28.89V26.23H86.5127C86.5827 26.23 86.6527 26.23 86.7327 26.22V28.27C85.8627 28.14 84.9627 28.15 84.0627 28.33L81.2927 28.89H81.3027ZM76.7727 6.75C76.7727 4.68 78.4527 3 80.5227 3H86.5227C88.5927 3 90.2727 4.68 90.2727 6.75V19.48C90.2727 21.55 88.5927 23.23 86.5227 23.23H80.5227C78.4527 23.23 76.7727 21.55 76.7727 19.48V6.75Z" fill="black"/>
<path d="M5.92268 52.19L26.1327 59.78C27.1127 60.15 28.1327 60.33 29.1527 60.33C30.3527 60.33 31.5527 60.07 32.6827 59.56C34.7627 58.62 36.3627 56.91 37.1627 54.77L39.6227 48.23C40.3627 46.25 40.7327 44.19 40.7227 42.09C40.7227 40.79 40.5527 39.47 40.2427 38.17L39.3527 34.51C39.1427 33.67 39.1027 32.83 39.2327 32.01C39.7127 28.7 37.8127 25.44 34.7127 24.23L35.2827 22.72H35.3027C35.9127 22.72 36.4827 22.35 36.7027 21.75L36.8327 21.41C38.3427 23.66 40.4327 25.69 41.0127 26.23C41.3027 26.5 41.6727 26.64 42.0427 26.64C42.3727 26.64 42.6927 26.53 42.9627 26.32L45.3027 24.49C45.6427 24.22 45.8527 23.83 45.8727 23.4C45.9027 22.97 45.7427 22.55 45.4327 22.25C43.5827 20.4 43.1427 18.87 43.1227 17.87L43.2327 17.91C43.6027 18.05 44.0127 18.04 44.3827 17.87C44.6127 17.77 44.7827 17.6 44.9327 17.4L48.1927 18.63C48.3627 18.69 48.5427 18.73 48.7227 18.73C48.9327 18.73 49.1427 18.69 49.3427 18.6C49.7027 18.44 49.9827 18.13 50.1227 17.76L51.9727 12.84C52.2627 12.06 51.8727 11.2 51.0927 10.91L47.8427 9.69C47.8827 9.05 47.5127 8.42 46.8827 8.19L29.8627 1.79C27.0627 0.74 20.6527 0.610001 16.4527 7.69C16.1827 8.15 16.1727 8.73 16.4427 9.19C16.7027 9.66 17.2027 9.95 17.7427 9.95C17.7827 9.95 21.6227 10.02 23.0427 12.08C23.7627 13.13 23.7627 14.66 23.0227 16.62C22.7927 17.23 22.9927 17.89 23.4527 18.28L22.8827 19.8C19.7427 18.68 16.1727 19.87 14.3527 22.69C13.9127 23.38 13.3327 23.99 12.6227 24.49L9.55268 26.66C7.93268 27.8 6.53268 29.21 5.39268 30.84C4.56268 32.03 3.88268 33.31 3.38268 34.65L0.922681 41.19C-0.737319 45.61 1.50268 50.56 5.93268 52.22L5.92268 52.19ZM46.8627 12.51L48.6427 13.18L47.8527 15.29L46.0727 14.62L46.8627 12.51ZM42.1527 23.15C40.5127 21.45 38.6727 19.14 38.2627 17.7C38.4627 17.38 38.7527 17.13 39.1027 16.97C39.4527 16.81 39.8327 16.76 40.2027 16.82C39.9727 18.28 40.1327 20.54 42.1927 23.12L42.1527 23.15ZM20.4127 7.28C24.1627 2.98 28.6127 4.51 28.8127 4.58L44.4327 10.45L42.8827 14.57L41.6427 14.11C40.4027 13.65 39.0627 13.69 37.8627 14.24C36.6627 14.79 35.7427 15.77 35.2827 17L34.4227 19.3L26.2827 16.24C26.8627 13.93 26.6027 11.97 25.5127 10.38C24.2427 8.54 22.1227 7.69 20.4127 7.29V7.28ZM32.4327 21.74L31.9027 23.16L26.9927 21.32L25.7027 20.83L26.2327 19.41L32.4327 21.74ZM11.2727 29.08L14.3427 26.92C15.3727 26.19 16.2227 25.31 16.8727 24.29C17.9527 22.62 20.0827 21.92 21.9327 22.62L33.5527 26.99C35.4027 27.69 36.5427 29.61 36.2527 31.56C36.0727 32.76 36.1327 33.99 36.4227 35.21L37.3027 38.87C37.4727 39.56 37.5827 40.26 37.6427 40.95C35.6927 41.26 31.0727 41.23 25.0827 36.13C25.0827 36.13 25.0727 36.12 25.0627 36.11C19.3827 31.28 13.7227 30.13 10.1227 29.98C10.4827 29.66 10.8627 29.37 11.2627 29.09L11.2727 29.08ZM3.72268 42.21L6.18268 35.67C6.52268 34.76 6.96268 33.88 7.49268 33.05C7.55268 33.05 7.63268 33.03 7.70268 33.03C7.76268 33.03 7.82268 33.02 7.88268 33.01C8.01268 33 8.16268 32.99 8.31268 32.98C8.42268 32.98 8.53268 32.97 8.64268 32.97C8.79268 32.97 8.95268 32.96 9.12268 32.96C9.23268 32.96 9.35268 32.96 9.46268 32.96C9.61268 32.96 9.76268 32.96 9.92268 32.96C10.0527 32.96 10.1927 32.97 10.3227 32.98C10.4827 32.98 10.6527 33 10.8227 33.02C10.9727 33.03 11.1127 33.05 11.2727 33.06C11.4527 33.08 11.6427 33.1 11.8327 33.13C11.9827 33.15 12.1427 33.17 12.3027 33.2C12.5127 33.23 12.7327 33.28 12.9527 33.32C13.1027 33.35 13.2527 33.38 13.4027 33.41C13.7427 33.49 14.0927 33.57 14.4527 33.67C14.5427 33.7 14.6427 33.72 14.7327 33.75C15.0727 33.85 15.4227 33.96 15.7827 34.09C15.9327 34.14 16.0827 34.21 16.2327 34.26C16.5027 34.36 16.7827 34.47 17.0627 34.59C17.2327 34.66 17.4127 34.74 17.5827 34.82C17.8527 34.94 18.1227 35.07 18.4027 35.21C18.5827 35.3 18.7627 35.4 18.9527 35.5C19.2327 35.65 19.5127 35.81 19.7927 35.98C19.9727 36.09 20.1527 36.19 20.3327 36.31C20.6427 36.51 20.9527 36.72 21.2627 36.94C21.4227 37.05 21.5727 37.15 21.7327 37.27C22.2027 37.62 22.6727 37.98 23.1427 38.38H23.1627V38.4C23.1827 38.42 23.2027 38.43 23.2227 38.45C23.5727 38.75 23.9227 39.03 24.2627 39.3C24.3927 39.4 24.5127 39.49 24.6327 39.58C24.8727 39.76 25.1127 39.94 25.3427 40.1C25.4827 40.2 25.6227 40.29 25.7527 40.38C25.9727 40.53 26.1927 40.67 26.4027 40.81C26.5427 40.9 26.6727 40.98 26.8127 41.07C27.0327 41.2 27.2427 41.33 27.4527 41.45C27.5827 41.52 27.7027 41.6 27.8327 41.66C28.0627 41.79 28.2927 41.91 28.5227 42.02C28.6227 42.07 28.7227 42.12 28.8227 42.17C29.1527 42.33 29.4727 42.48 29.7827 42.61C30.0927 42.74 30.4027 42.86 30.7027 42.97C30.7927 43 30.8827 43.03 30.9727 43.06C31.1827 43.13 31.3927 43.21 31.6027 43.27C31.7027 43.3 31.8027 43.33 31.9027 43.36C32.0927 43.42 32.2827 43.47 32.4627 43.51C32.5627 43.54 32.6627 43.56 32.7527 43.58C32.9427 43.62 33.1227 43.66 33.3027 43.7C33.3927 43.72 33.4727 43.74 33.5627 43.75C33.7627 43.79 33.9627 43.82 34.1527 43.85C34.2127 43.85 34.2627 43.87 34.3227 43.88C34.8227 43.95 35.2927 43.99 35.7327 44C35.7927 44 35.8427 44 35.9027 44C36.0127 44 36.1327 44 36.2327 44C36.2627 44 36.2927 44 36.3327 44C36.5227 44 36.6927 44 36.8727 43.98C36.9227 43.98 36.9727 43.98 37.0227 43.98C37.2227 43.97 37.4227 43.95 37.6027 43.93C37.4627 45.02 37.2027 46.09 36.8127 47.14L34.3527 53.68C33.8327 55.07 32.7927 56.18 31.4427 56.79C30.0927 57.4 28.5827 57.45 27.1827 56.93L6.97268 49.34C4.10268 48.26 2.64268 45.05 3.72268 42.17V42.21Z" fill="black"/>
<path d="M70.4127 10.51C69.5827 10.57 68.9627 11.28 69.0227 12.11C69.0727 12.9 69.7327 13.51 70.5127 13.51C70.5527 13.51 70.5827 13.51 70.6227 13.51L70.8427 13.49C71.6727 13.43 72.2927 12.72 72.2327 11.89C72.1727 11.06 71.4627 10.44 70.6327 10.5L70.4127 10.52V10.51Z" fill="black"/>
<path d="M58.4327 11.35L54.4427 11.63C53.6127 11.69 52.9927 12.4 53.0527 13.23C53.1027 14.02 53.7627 14.63 54.5427 14.63C54.5827 14.63 54.6127 14.63 54.6527 14.63L58.6427 14.35C59.4727 14.29 60.0927 13.58 60.0327 12.75C59.9727 11.92 59.2427 11.3 58.4327 11.36V11.35Z" fill="black"/>
<path d="M62.4227 11.07C61.5927 11.13 60.9727 11.84 61.0327 12.67C61.0827 13.46 61.7427 14.07 62.5227 14.07C62.5627 14.07 62.5927 14.07 62.6327 14.07L66.6227 13.79C67.4527 13.73 68.0727 13.02 68.0127 12.19C67.9527 11.36 67.2327 10.74 66.4127 10.8L62.4227 11.08V11.07Z" fill="black"/>
<path d="M66.7627 21.81C67.4427 21.81 68.0527 21.35 68.2227 20.66C68.4127 19.85 67.9227 19.05 67.1127 18.85L63.2227 17.92C62.4127 17.73 61.6127 18.22 61.4127 19.03C61.2227 19.84 61.7127 20.64 62.5227 20.84L66.4127 21.77C66.5327 21.8 66.6427 21.81 66.7627 21.81Z" fill="black"/>
<path d="M58.9827 19.95C59.6627 19.95 60.2727 19.49 60.4427 18.8C60.6327 17.99 60.1427 17.19 59.3327 16.99L55.4427 16.06C54.6327 15.87 53.8227 16.36 53.6327 17.17C53.4427 17.98 53.9327 18.78 54.7427 18.98L58.6327 19.91C58.7527 19.94 58.8627 19.95 58.9827 19.95Z" fill="black"/>
<path d="M51.7727 19.82C51.2527 20.47 51.3627 21.41 52.0127 21.93L55.1427 24.43C55.4227 24.65 55.7527 24.76 56.0727 24.76C56.5127 24.76 56.9527 24.57 57.2427 24.2C57.7627 23.55 57.6527 22.61 57.0027 22.09L53.8727 19.59C53.2227 19.07 52.2827 19.18 51.7627 19.83L51.7727 19.82Z" fill="black"/>
<path d="M63.4927 29.18C64.0127 28.53 63.9027 27.59 63.2527 27.07L60.1227 24.57C59.4727 24.05 58.5327 24.16 58.0127 24.81C57.4927 25.46 57.6027 26.4 58.2527 26.92L61.3827 29.42C61.6627 29.64 61.9927 29.75 62.3127 29.75C62.7527 29.75 63.1927 29.56 63.4827 29.19L63.4927 29.18Z" fill="black"/>
<path d="M48.3527 20.82C47.6027 21.17 47.2727 22.06 47.6227 22.81L49.3027 26.44C49.5527 26.99 50.0927 27.31 50.6627 27.31C50.8727 27.31 51.0927 27.26 51.2927 27.17C52.0427 26.82 52.3727 25.93 52.0227 25.18L50.3427 21.55C49.9927 20.8 49.1027 20.47 48.3527 20.82Z" fill="black"/>
<path d="M54.6627 34.43C55.4127 34.08 55.7427 33.19 55.3927 32.44L53.7127 28.81C53.3627 28.06 52.4727 27.73 51.7227 28.08C50.9727 28.43 50.6427 29.32 50.9927 30.07L52.6727 33.7C52.9227 34.25 53.4627 34.57 54.0327 34.57C54.2427 34.57 54.4627 34.53 54.6627 34.43Z" fill="black"/>
<path d="M56.0327 40.96C56.2827 41.51 56.8227 41.83 57.3927 41.83C57.6027 41.83 57.8227 41.79 58.0227 41.69C58.7727 41.34 59.1027 40.45 58.7527 39.7L57.0727 36.07C56.7227 35.32 55.8327 34.99 55.0827 35.34C54.3327 35.69 54.0027 36.58 54.3527 37.33L56.0327 40.96Z" fill="black"/>
<path d="M58.5527 46.39C58.8027 46.94 59.3427 47.26 59.9127 47.26C60.1227 47.26 60.3427 47.22 60.5427 47.12C61.2927 46.77 61.6227 45.88 61.2727 45.13L60.4427 43.33C60.0927 42.58 59.2027 42.25 58.4527 42.6C57.7027 42.95 57.3727 43.84 57.7227 44.59L58.5527 46.39Z" fill="black"/>
</g>
</svg>
