<svg width="93" height="94" viewBox="0 0 93 94" fill="none" xmlns="http://www.w3.org/2000/svg">
<g id="Vector">
<path d="M4.54 50.43C6.76 50.43 8.56 48.62 8.56 46.41V40.41H11.01V48.94C11.01 49.77 11.68 50.44 12.51 50.44H17.31L28.44 62.58C28.72 62.89 29.13 63.07 29.55 63.07H49.74V71.23C49.74 74.26 52.21 76.73 55.24 76.73H58.19V82.35C58.19 88.65 63.31 93.77 69.61 93.77H74.83C81.13 93.77 86.25 88.65 86.25 82.35V76.73H87.42C90.45 76.73 92.92 74.26 92.92 71.23V49.14C92.92 46.58 91.16 44.42 88.78 43.82C88.8 43.42 88.82 43.03 88.82 42.63C88.82 32.96 83.17 23.33 82.93 22.93C82.66 22.47 82.17 22.2 81.64 22.2H74.66C73.83 22.2 73.16 22.87 73.16 23.7V36.17H69.92V23.7C69.92 22.87 69.25 22.2 68.42 22.2H63.49L57.35 15.43C57.07 15.12 56.66 14.94 56.24 14.94H24.75C24.33 14.94 23.94 15.11 23.65 15.42L17.31 22.21H12.5C11.67 22.21 11 22.88 11 23.71V32.24H8.55V26.24C8.55 24.02 6.74 22.21 4.53 22.21C2.32 22.21 0.5 24.02 0.5 26.24V46.44C0.5 48.66 2.31 50.46 4.53 50.46L4.54 50.43ZM83.25 82.33C83.25 86.97 79.47 90.75 74.83 90.75H69.61C64.97 90.75 61.19 86.97 61.19 82.33V67.42C61.19 67.11 61.32 66.8 61.55 66.57C61.68 66.44 61.9 66.29 62.2 66.29C62.21 66.29 62.22 66.29 62.23 66.29C62.48 66.29 62.72 66.4 62.91 66.59C63.1 66.78 63.2 67.03 63.2 67.3V77.18C63.2 78.01 63.87 78.68 64.7 78.68C65.53 78.68 66.2 78.01 66.2 77.18V58.86C66.2 58.55 66.33 58.24 66.56 58.01C66.7 57.88 66.94 57.71 67.24 57.73C67.5 57.73 67.74 57.84 67.91 58.02C68.1 58.22 68.21 58.47 68.21 58.74V72.24C68.21 73.07 68.88 73.74 69.71 73.74C70.54 73.74 71.21 73.07 71.21 72.24V53.85C71.21 53.54 71.34 53.23 71.57 53C71.68 52.89 71.92 52.7 72.25 52.72C72.5 52.72 72.75 52.84 72.92 53.01C73.11 53.2 73.22 53.46 73.22 53.73V72.24C73.22 73.07 73.89 73.74 74.72 73.74C75.55 73.74 76.22 73.07 76.22 72.24V57.35C76.22 56.8 76.67 56.34 77.23 56.34C77.5 56.34 77.75 56.45 77.94 56.64C78.13 56.83 78.23 57.08 78.23 57.35V72.24C78.23 73.07 78.9 73.74 79.73 73.74C80.56 73.74 81.23 73.07 81.23 72.24V63.05C81.23 62.5 81.68 62.04 82.24 62.04C82.51 62.04 82.77 62.15 82.95 62.33C83.14 62.52 83.25 62.78 83.25 63.05V82.33ZM69.92 39.15H74.66C75.49 39.15 76.16 38.48 76.16 37.65V25.18H80.76C82.03 27.54 85.82 35.22 85.82 42.62C85.82 42.96 85.8 43.29 85.79 43.63H69.92V39.15ZM87.42 46.63C88.8 46.63 89.92 47.75 89.92 49.13V71.22C89.92 72.6 88.8 73.72 87.42 73.72H86.25V63.06C86.25 62 85.84 60.99 85.07 60.22C84.06 59.22 82.54 58.84 81.23 59.18V57.36C81.23 56.29 80.81 55.29 80.06 54.53C79.05 53.52 77.52 53.14 76.21 53.48C76.15 52.51 75.74 51.6 75.04 50.89C74.32 50.18 73.36 49.76 72.36 49.73C71.29 49.69 70.28 50.09 69.49 50.85C68.68 51.64 68.21 52.73 68.21 53.86V54.87C67.93 54.8 67.64 54.76 67.35 54.75C66.27 54.71 65.27 55.11 64.48 55.87C63.67 56.66 63.2 57.75 63.2 58.88V63.44C62.92 63.37 62.63 63.33 62.34 63.32C61.28 63.28 60.26 63.68 59.47 64.44C58.66 65.23 58.19 66.32 58.19 67.45V73.74H55.24C53.86 73.74 52.74 72.62 52.74 71.24V49.15C52.74 47.77 53.86 46.65 55.24 46.65H87.42V46.63ZM14.01 25.18H17.97C18.39 25.18 18.78 25.01 19.07 24.7L25.41 17.91H55.58L61.72 24.68C62 24.99 62.41 25.17 62.83 25.17H66.92V43.62H55.24C52.21 43.62 49.74 46.09 49.74 49.12V60.05H30.21L19.08 47.91C18.8 47.6 18.39 47.42 17.97 47.42H14.01V25.18ZM8.56 35.21H10.75V37.4H8.56V35.21ZM3.51 26.21C3.51 25.64 3.97 25.18 4.54 25.18C5.11 25.18 5.56 25.64 5.56 26.21V46.41C5.56 46.97 5.1 47.43 4.54 47.43C3.98 47.43 3.51 46.97 3.51 46.41V26.2V26.21Z" fill="black"/>
<path d="M32.61 40.21H37.25L33.21 53.62C33 54.31 33.31 55.04 33.95 55.38C34.17 55.5 34.41 55.55 34.65 55.55C35.09 55.55 35.53 55.35 35.82 54.99L51.16 35.93C51.52 35.48 51.59 34.86 51.34 34.34C51.09 33.82 50.56 33.49 49.99 33.49H47.16L53.95 24.84C54.3 24.39 54.37 23.77 54.12 23.26C53.87 22.74 53.35 22.42 52.77 22.42H39.09C38.49 22.42 37.95 22.77 37.72 23.32L31.25 38.11C31.05 38.57 31.09 39.11 31.37 39.53C31.65 39.95 32.12 40.21 32.63 40.21H32.61ZM40.06 25.42H49.68L42.89 34.07C42.54 34.52 42.47 35.14 42.72 35.65C42.97 36.17 43.49 36.49 44.07 36.49H46.85L38.29 47.12L40.69 39.14C40.83 38.69 40.74 38.19 40.46 37.81C40.18 37.43 39.73 37.2 39.26 37.2H34.9L40.06 25.41V25.42Z" fill="black"/>
<path d="M21.69 68.63C21.69 67.94 21.22 67.34 20.54 67.17C15.06 65.84 13.75 57.95 13.74 57.87C13.63 57.14 13 56.6 12.26 56.6C11.52 56.6 10.89 57.14 10.78 57.87C10.77 57.95 9.49 65.83 3.98 67.17C3.31 67.33 2.83 67.94 2.83 68.63C2.83 69.32 3.3 69.92 3.98 70.09C9.46 71.42 10.77 79.31 10.78 79.39C10.89 80.12 11.52 80.66 12.26 80.66C13 80.66 13.63 80.12 13.74 79.39C13.75 79.31 15.06 71.42 20.54 70.09C21.21 69.93 21.69 69.32 21.69 68.63ZM12.26 74.17C11.37 72.22 10 70.08 7.91 68.63C9.99 67.18 11.37 65.04 12.26 63.09C13.15 65.04 14.52 67.18 16.6 68.63C14.52 70.08 13.14 72.22 12.26 74.17Z" fill="black"/>
<path d="M21.66 81.35C27.14 82.68 28.45 90.57 28.46 90.65C28.57 91.38 29.2 91.92 29.94 91.92C30.68 91.92 31.31 91.38 31.42 90.65C31.43 90.57 32.71 82.69 38.22 81.35C38.89 81.19 39.37 80.58 39.37 79.89C39.37 79.2 38.9 78.6 38.22 78.43C32.74 77.1 31.43 69.21 31.42 69.13C31.31 68.4 30.68 67.86 29.94 67.86C29.2 67.86 28.57 68.4 28.46 69.13C28.45 69.21 27.14 77.1 21.66 78.43C20.99 78.59 20.51 79.2 20.51 79.89C20.51 80.58 20.98 81.18 21.66 81.35ZM29.95 74.36C30.84 76.31 32.21 78.45 34.3 79.9C32.22 81.35 30.84 83.49 29.95 85.44C29.06 83.49 27.69 81.35 25.61 79.9C27.69 78.45 29.07 76.31 29.95 74.36Z" fill="black"/>
<path d="M68.22 19.55C68.33 20.28 68.96 20.82 69.7 20.82C70.44 20.82 71.07 20.28 71.18 19.55C71.19 19.48 72.28 12.96 76.76 11.87C77.43 11.71 77.91 11.1 77.91 10.41C77.91 9.72 77.44 9.12 76.76 8.95C72.27 7.86 71.19 1.34 71.18 1.27C71.07 0.54 70.44 0 69.7 0C68.96 0 68.33 0.54 68.22 1.27C68.21 1.34 67.12 7.86 62.64 8.95C61.97 9.11 61.49 9.72 61.49 10.41C61.49 11.1 61.96 11.7 62.64 11.87C67.13 12.96 68.21 19.48 68.22 19.55ZM69.7 6.27C70.42 7.74 71.48 9.28 72.98 10.42C71.47 11.55 70.42 13.1 69.7 14.57C68.98 13.1 67.92 11.56 66.42 10.42C67.93 9.29 68.98 7.74 69.7 6.27Z" fill="black"/>
</g>
</svg>
