<svg width="82" height="82" viewBox="0 0 82 82" fill="none" xmlns="http://www.w3.org/2000/svg">
<g id="Vector">
<path d="M77.94 33.43C77.22 29.48 73.76 26.48 69.6 26.48C67.9 26.48 66.33 26.99 65 27.85C62.98 25.16 59.79 23.51 56.34 23.51C55.22 23.51 54.12 23.68 53.07 24.01C51.13 21.8 48.33 20.51 45.36 20.51C41.58 20.51 38.2 22.54 36.41 25.73C35.14 24.92 33.64 24.47 32.1 24.47C30.56 24.47 28.94 24.94 27.64 25.82C25.72 24.14 23.25 23.2 20.67 23.2C16.75 23.2 13.33 25.35 11.49 28.52C7.72 28.62 4.68 31.71 4.68 35.5C4.68 38.19 6.21 40.52 8.44 41.69C7.92 42.95 7.64 44.31 7.64 45.7V45.78C2.97 48.2 0 53.02 0 58.34C0 66.14 6.34 72.49 14.14 72.49H15.46C15.93 72.98 16.46 73.41 17.05 73.76V77.1C17.05 79.53 19.03 81.51 21.46 81.51H26.49C28.92 81.51 30.9 79.53 30.9 77.1V74.83H50.71V77.1C50.71 79.53 52.69 81.51 55.12 81.51H60.15C62.58 81.51 64.56 79.53 64.56 77.1V73.76C65.14 73.41 65.67 72.99 66.13 72.51C66.84 72.96 67.67 73.19 68.55 73.19C69.59 73.19 70.69 72.87 71.71 72.22C73.51 71.08 75.23 68.65 74.88 65.27C78.08 64.77 79.54 62.79 79.54 59.02C79.54 56.81 78.64 54.74 77.09 53.25C79.95 50.59 81.61 46.85 81.61 42.89C81.61 39.25 80.22 35.94 77.96 33.43H77.94ZM69.6 29.48C72.62 29.48 75.09 31.94 75.09 34.97C75.09 38 72.63 40.45 69.6 40.45C66.57 40.45 64.11 37.99 64.11 34.97C64.11 31.95 66.57 29.48 69.6 29.48ZM7.68 35.49C7.68 33.29 9.47 31.5 11.67 31.5C13.87 31.5 15.66 33.29 15.66 35.49C15.66 37.69 13.87 39.48 11.67 39.48C9.47 39.48 7.68 37.69 7.68 35.49ZM27.89 77.09C27.89 77.87 27.26 78.5 26.48 78.5H21.45C20.67 78.5 20.04 77.87 20.04 77.09V74.77C20.32 74.8 20.6 74.82 20.89 74.82H27.89V77.09ZM61.55 77.09C61.55 77.87 60.92 78.5 60.14 78.5H55.11C54.33 78.5 53.7 77.87 53.7 77.09V74.82H60.7C60.99 74.82 61.27 74.8 61.55 74.77V77.09ZM65.23 67.29C65.23 69.79 63.2 71.82 60.7 71.82H20.89C18.39 71.82 16.36 69.79 16.36 67.29V63.17C16.36 61.28 16.86 59.42 17.8 57.79L20.37 53.35C20.47 53.21 20.55 53.05 20.6 52.88L24.59 38.39C24.9 37.27 25.93 36.48 27.1 36.48H54.49C55.66 36.48 56.69 37.26 57 38.39L60.99 52.88C61.04 53.05 61.11 53.21 61.21 53.34L63.78 57.79C64.72 59.43 65.22 61.29 65.22 63.18V67.3L65.23 67.29ZM73.91 54.61C75.52 55.5 76.52 57.19 76.52 59.03C76.52 61.77 75.87 62.4 73.06 62.4C72.59 62.4 72.14 62.62 71.86 63.01C71.58 63.39 71.49 63.88 71.63 64.34C72.45 67.05 71.38 68.88 70.1 69.69C69.25 70.23 68.3 70.32 67.74 69.95C68.05 69.12 68.23 68.23 68.23 67.3V63.18C68.23 60.77 67.59 58.39 66.38 56.29L63.82 51.87L59.88 37.59C59.22 35.17 56.99 33.48 54.48 33.48H27.09C24.57 33.48 22.35 35.17 21.69 37.59L17.75 51.87L15.19 56.29C13.98 58.38 13.34 60.76 13.34 63.18V67.3C13.34 68.06 13.45 68.78 13.66 69.47C7.73 69.23 2.97 64.34 2.97 58.34C2.97 53.86 5.63 49.84 9.76 48.08C10.37 47.82 10.74 47.18 10.66 46.52C10.63 46.25 10.61 45.98 10.61 45.7C10.61 44.58 10.87 43.48 11.34 42.48C11.44 42.48 11.54 42.5 11.64 42.5C15.49 42.5 18.63 39.36 18.63 35.51C18.63 32.72 16.98 30.31 14.61 29.19C16 27.38 18.18 26.21 20.63 26.21C22.83 26.21 24.92 27.17 26.37 28.83C26.64 29.14 27.03 29.33 27.45 29.35C27.85 29.36 28.27 29.21 28.56 28.92C29.49 27.99 30.74 27.48 32.07 27.48C33.51 27.48 34.88 28.1 35.83 29.17C36.19 29.58 36.74 29.76 37.27 29.65C37.8 29.54 38.23 29.15 38.39 28.63C39.35 25.57 42.14 23.52 45.34 23.52C47.72 23.52 49.96 24.69 51.32 26.66C51.73 27.25 52.5 27.47 53.16 27.18C54.15 26.74 55.21 26.52 56.32 26.52C58.93 26.52 61.33 27.83 62.77 29.94C61.72 31.35 61.09 33.09 61.09 34.98C61.09 39.66 64.9 43.46 69.58 43.46C73.16 43.46 76.22 41.23 77.47 38.09C78.17 39.55 78.58 41.18 78.58 42.9C78.58 46.56 76.78 49.98 73.77 52.07C73.34 52.37 73.1 52.86 73.12 53.38C73.15 53.9 73.44 54.37 73.9 54.62L73.91 54.61Z" fill="black"/>
<path d="M23.94 54.55H57.65C58.12 54.55 58.56 54.33 58.84 53.96C59.12 53.59 59.22 53.1 59.09 52.65L55.6 39.99C55.26 38.77 54.15 37.92 52.89 37.92H28.7C27.44 37.92 26.32 38.77 25.99 39.99L22.5 52.65C22.38 53.1 22.47 53.59 22.75 53.96C23.03 54.33 23.47 54.55 23.94 54.55ZM52.74 40.92L55.67 51.55H25.9L28.83 40.92H52.74Z" fill="black"/>
<path d="M23.83 57.96C21.24 57.96 19.21 60.63 19.21 64.04C19.21 67.45 21.24 70.12 23.83 70.12C26.42 70.12 28.45 67.45 28.45 64.04C28.45 60.63 26.42 57.96 23.83 57.96ZM23.83 67.12C23.08 67.12 22.21 65.77 22.21 64.04C22.21 62.31 23.08 60.96 23.83 60.96C24.58 60.96 25.45 62.31 25.45 64.04C25.45 65.77 24.58 67.12 23.83 67.12Z" fill="black"/>
<path d="M57.75 57.96C55.16 57.96 53.13 60.63 53.13 64.04C53.13 67.45 55.16 70.12 57.75 70.12C60.34 70.12 62.37 67.45 62.37 64.04C62.37 60.63 60.34 57.96 57.75 57.96ZM57.75 67.12C57 67.12 56.13 65.77 56.13 64.04C56.13 62.31 57 60.96 57.75 60.96C58.5 60.96 59.37 62.31 59.37 64.04C59.37 65.77 58.5 67.12 57.75 67.12Z" fill="black"/>
<path d="M49.01 62.08H32.58C31.75 62.08 31.08 62.75 31.08 63.58V68.95C31.08 69.78 31.75 70.45 32.58 70.45H49.01C49.84 70.45 50.51 69.78 50.51 68.95V63.58C50.51 62.75 49.84 62.08 49.01 62.08ZM47.51 67.45H34.08V65.08H47.51V67.45Z" fill="black"/>
<path d="M71.72 20.11C74.79 20.11 77.29 17.61 77.29 14.54C77.29 11.47 74.79 8.96997 71.72 8.96997C68.65 8.96997 66.15 11.47 66.15 14.54C66.15 17.61 68.65 20.11 71.72 20.11ZM71.72 11.97C73.14 11.97 74.29 13.12 74.29 14.54C74.29 15.96 73.14 17.11 71.72 17.11C70.3 17.11 69.15 15.96 69.15 14.54C69.15 13.12 70.3 11.97 71.72 11.97Z" fill="black"/>
<path d="M48.29 9C50.7703 9 52.79 6.98025 52.79 4.5C52.79 2.01975 50.7703 0 48.29 0C45.8097 0 43.79 2.01975 43.79 4.5C43.79 6.98025 45.8097 9 48.29 9ZM48.29 2.4237C49.4372 2.4237 50.3663 3.35278 50.3663 4.5C50.3663 5.64722 49.4372 6.5763 48.29 6.5763C47.1428 6.5763 46.2137 5.64722 46.2137 4.5C46.2137 3.35278 47.1428 2.4237 48.29 2.4237Z" fill="black"/>
<path d="M56.29 20C57.6679 20 58.79 18.8779 58.79 17.5C58.79 16.1221 57.6679 15 56.29 15C54.9121 15 53.79 16.1221 53.79 17.5C53.79 18.8779 54.9121 20 56.29 20ZM56.29 16.3465C56.9273 16.3465 57.4435 16.8627 57.4435 17.5C57.4435 18.1373 56.9273 18.6535 56.29 18.6535C55.6527 18.6535 55.1365 18.1373 55.1365 17.5C55.1365 16.8627 55.6527 16.3465 56.29 16.3465Z" fill="black"/>
<path d="M32.29 20C35.3214 20 37.79 17.5314 37.79 14.5C37.79 11.4686 35.3214 9 32.29 9C29.2586 9 26.79 11.4686 26.79 14.5C26.79 17.5314 29.2586 20 32.29 20ZM32.29 11.9623C33.6922 11.9623 34.8277 13.0978 34.8277 14.5C34.8277 15.9022 33.6922 17.0377 32.29 17.0377C30.8878 17.0377 29.7523 15.9022 29.7523 14.5C29.7523 13.0978 30.8878 11.9623 32.29 11.9623Z" fill="black"/>
<path d="M3.24999 8.58003C3.24999 10.98 4.46999 13.1 6.31999 14.36C6.16999 14.86 6.08999 15.38 6.08999 15.93C6.08999 19 8.58999 21.5 11.66 21.5C14.73 21.5 17.23 19 17.23 15.93C17.23 14.63 16.78 13.44 16.03 12.49C16.79 11.37 17.23 10.03 17.23 8.58003C17.23 4.73003 14.09 1.59003 10.24 1.59003C6.38999 1.59003 3.24999 4.73003 3.24999 8.58003ZM11.66 18.5C10.24 18.5 9.08999 17.35 9.08999 15.93C9.08999 15.78 9.10999 15.63 9.13999 15.48C9.49999 15.54 9.86999 15.58 10.25 15.58C11.56 15.58 12.79 15.21 13.84 14.57C14.09 14.97 14.24 15.43 14.24 15.93C14.24 17.35 13.09 18.5 11.67 18.5H11.66ZM10.24 4.59003C12.44 4.59003 14.23 6.38003 14.23 8.58003C14.23 10.78 12.44 12.57 10.24 12.57C8.03999 12.57 6.24999 10.78 6.24999 8.58003C6.24999 6.38003 8.03999 4.59003 10.24 4.59003Z" fill="black"/>
</g>
</svg>
