<svg width="93" height="93" viewBox="0 0 93 93" fill="none" xmlns="http://www.w3.org/2000/svg">
<g id="Vector">
<path d="M35.91 35.8C31.49 35.8 27.9 39.39 27.9 43.81C27.9 48.23 31.49 51.82 35.91 51.82C40.33 51.82 43.92 48.23 43.92 43.81C43.92 39.39 40.33 35.8 35.91 35.8ZM35.91 48.82C33.15 48.82 30.9 46.57 30.9 43.81C30.9 41.05 33.15 38.8 35.91 38.8C38.67 38.8 40.92 41.05 40.92 43.81C40.92 46.57 38.67 48.82 35.91 48.82Z" fill="black"/>
<path d="M82.59 41.95H71.84C70.62 23.21 55 8.34 35.96 8.34C16.92 8.34 0 24.47 0 44.3C0 64.13 16.13 80.26 35.96 80.26C42.27 80.26 48.2 78.62 53.35 75.76V80.65C53.35 86.95 58.47 92.07 64.77 92.07H69.99C76.29 92.07 81.41 86.95 81.41 80.65V75.03H82.58C85.61 75.03 88.08 72.56 88.08 69.53V47.44C88.08 44.41 85.61 41.94 82.58 41.94L82.59 41.95ZM35.97 77.26C17.79 77.26 3.01 62.47 3.01 44.3C3.01 26.13 17.79 11.34 35.96 11.34C54.13 11.34 67.62 24.87 68.83 41.95H61.96C61.8 40.18 61.48 38.44 60.96 36.76C60.65 35.7 60.26 34.64 59.79 33.6C55.79 24.7 47.27 18.81 37.54 18.24C36.56 18.18 35.57 18.18 34.65 18.22C34.6 18.22 34.55 18.22 34.51 18.22C34.44 18.22 34.38 18.23 34.32 18.24C34.08 18.26 33.84 18.27 33.62 18.3C33.62 18.3 33.62 18.3 33.61 18.3C33.61 18.3 33.6 18.3 33.59 18.3C24.2 19.14 15.98 25.02 12.13 33.64C11.87 34.2 11.64 34.78 11.42 35.37C11.2 35.96 11.01 36.56 10.84 37.16C10.18 39.47 9.85 41.87 9.85 44.3C9.85 51.8 13.08 58.94 18.7 63.89C19.49 64.59 20.29 65.22 21.09 65.75C21.09 65.75 21.09 65.75 21.1 65.75C25.48 68.79 30.61 70.4 35.96 70.4C39.04 70.4 42.06 69.85 44.91 68.81V69.51C44.91 71.92 46.47 73.96 48.62 74.71C44.72 76.34 40.44 77.24 35.96 77.24L35.97 77.26ZM43.01 57.52C40.87 55.79 38.24 54.92 35.62 54.92C33 54.92 30.37 55.79 28.23 57.52L21.9 62.64C21.76 62.54 21.63 62.43 21.49 62.32L24.4 54.73C26.36 49.59 24.44 43.67 19.82 40.67L14.07 36.93C14.2 36.55 14.34 36.18 14.48 35.81L21.29 36.16C26.79 36.45 31.83 32.8 33.26 27.47L34.94 21.21C35.37 21.19 35.84 21.18 36.31 21.19L37.99 27.47C39.43 32.8 44.46 36.46 49.96 36.16L57.47 35.77C57.57 36.03 57.67 36.29 57.76 36.55L51.43 40.66C50.82 41.06 50.26 41.51 49.75 42C47.04 42.34 44.93 44.65 44.93 47.45V59.06L43.02 57.52H43.01ZM44.92 62.92V65.61C42.11 66.79 39.08 67.42 35.97 67.42C31.92 67.42 28.01 66.37 24.52 64.37L30.1 59.85C33.29 57.27 37.92 57.27 41.11 59.85L44.9 62.92H44.92ZM19.12 60.11C15.12 55.84 12.86 50.2 12.86 44.3C12.86 42.84 13.01 41.4 13.27 39.99L18.18 43.18C21.62 45.42 23.06 49.82 21.6 53.66L19.13 60.11H19.12ZM15.89 32.88C19.24 26.97 25.03 22.84 31.72 21.6L30.35 26.69C29.29 30.66 25.54 33.38 21.44 33.16L15.9 32.88H15.89ZM39.47 21.46C46.46 22.51 52.53 26.69 56.03 32.84L49.79 33.16C45.69 33.38 41.94 30.65 40.87 26.69L39.47 21.46ZM58.59 39.58C58.75 40.36 58.87 41.15 58.95 41.95H54.94L58.59 39.58ZM78.43 80.65C78.43 85.29 74.65 89.07 70.01 89.07H64.79C60.15 89.07 56.37 85.29 56.37 80.65V65.74C56.37 65.43 56.5 65.12 56.73 64.89C56.86 64.76 57.08 64.61 57.38 64.61C57.39 64.61 57.4 64.61 57.41 64.61C57.66 64.61 57.9 64.72 58.09 64.91C58.28 65.1 58.38 65.35 58.38 65.62V75.5C58.38 76.33 59.05 77 59.88 77C60.71 77 61.38 76.33 61.38 75.5V57.18C61.38 56.87 61.51 56.56 61.74 56.33C61.85 56.22 62.09 56.03 62.42 56.05C62.67 56.05 62.92 56.16 63.09 56.34C63.28 56.53 63.39 56.79 63.39 57.06V70.56C63.39 71.39 64.06 72.06 64.89 72.06C65.72 72.06 66.39 71.39 66.39 70.56V52.17C66.39 51.86 66.52 51.55 66.75 51.32C66.89 51.19 67.13 51.03 67.43 51.04C67.69 51.04 67.93 51.16 68.1 51.32C68.29 51.52 68.4 51.77 68.4 52.04V70.55C68.4 71.38 69.07 72.05 69.9 72.05C70.73 72.05 71.4 71.38 71.4 70.55V55.66C71.4 55.1 71.85 54.65 72.41 54.65C72.68 54.65 72.93 54.76 73.12 54.95C73.31 55.14 73.41 55.39 73.41 55.66V70.55C73.41 71.38 74.08 72.05 74.91 72.05C75.74 72.05 76.41 71.38 76.41 70.55V61.36C76.41 60.8 76.86 60.35 77.42 60.35C77.69 60.35 77.95 60.46 78.13 60.64C78.32 60.84 78.43 61.09 78.43 61.36V80.65ZM85.1 69.53C85.1 70.91 83.98 72.03 82.6 72.03H81.43V61.37C81.43 60.31 81.02 59.3 80.25 58.53C79.24 57.53 77.72 57.15 76.41 57.49V55.67C76.41 54.6 75.99 53.59 75.24 52.84C74.23 51.83 72.7 51.45 71.39 51.79C71.33 50.82 70.92 49.91 70.22 49.2C69.5 48.49 68.54 48.07 67.54 48.04C66.47 48 65.46 48.4 64.67 49.16C63.86 49.95 63.39 51.04 63.39 52.17V53.18C63.11 53.11 62.82 53.07 62.53 53.06C61.46 53.02 60.45 53.42 59.66 54.18C58.85 54.97 58.38 56.06 58.38 57.19V61.75C58.1 61.68 57.81 61.63 57.52 61.62C56.46 61.58 55.44 61.98 54.65 62.74C53.84 63.53 53.37 64.62 53.37 65.75V72.04H50.42C49.04 72.04 47.92 70.92 47.92 69.54V47.45C47.92 46.07 49.04 44.95 50.42 44.95H82.6C83.98 44.95 85.1 46.07 85.1 47.45V69.54V69.53Z" fill="black"/>
<path d="M75.22 14C71.6 13.12 70.71 7.79 70.7 7.74C70.59 7.01 69.96 6.47 69.22 6.47C68.48 6.47 67.85 7.01 67.74 7.74C67.74 7.79 66.81 13.13 63.22 14C62.55 14.16 62.07 14.77 62.07 15.46C62.07 16.15 62.54 16.75 63.22 16.92C66.84 17.8 67.73 23.13 67.74 23.18C67.85 23.91 68.48 24.45 69.22 24.45C69.96 24.45 70.59 23.91 70.7 23.18C70.7 23.13 71.6 17.79 75.22 16.92C75.89 16.76 76.37 16.15 76.37 15.46C76.37 14.77 75.9 14.17 75.22 14ZM69.22 18.43C68.65 17.37 67.88 16.3 66.84 15.46C67.88 14.61 68.65 13.54 69.22 12.49C69.79 13.55 70.56 14.62 71.6 15.46C70.56 16.31 69.79 17.38 69.22 18.43Z" fill="black"/>
<path d="M72.78 31.52C72.78 32.21 73.25 32.81 73.93 32.98C77.55 33.86 78.44 39.19 78.45 39.24C78.56 39.97 79.19 40.51 79.93 40.51C80.67 40.51 81.3 39.97 81.41 39.24C81.41 39.19 82.34 33.85 85.92 32.98C86.59 32.82 87.07 32.21 87.07 31.52C87.07 30.83 86.6 30.23 85.92 30.06C82.3 29.18 81.41 23.85 81.41 23.8C81.3 23.07 80.67 22.53 79.93 22.53C79.19 22.53 78.56 23.07 78.45 23.8C78.45 23.85 77.52 29.19 73.93 30.06C73.26 30.22 72.78 30.83 72.78 31.52ZM79.92 28.55C80.49 29.61 81.26 30.68 82.29 31.52C81.25 32.37 80.48 33.44 79.92 34.49C79.35 33.43 78.58 32.36 77.54 31.52C78.58 30.67 79.35 29.6 79.92 28.55Z" fill="black"/>
<path d="M91.85 9.95C86.75 8.71 85.52 1.34 85.51 1.27C85.4 0.54 84.77 0 84.03 0C83.29 0 82.66 0.54 82.55 1.27C82.54 1.34 81.32 8.72 76.21 9.95C75.54 10.11 75.06 10.72 75.06 11.41C75.06 12.1 75.53 12.7 76.21 12.87C81.31 14.11 82.53 21.48 82.55 21.55C82.66 22.28 83.29 22.82 84.03 22.82C84.77 22.82 85.4 22.28 85.51 21.55C85.52 21.48 86.72 14.11 91.85 12.87C92.52 12.71 93 12.1 93 11.41C93 10.72 92.53 10.12 91.85 9.95ZM84.03 16.41C83.2 14.64 81.95 12.74 80.09 11.41C81.95 10.08 83.2 8.18 84.03 6.41C84.86 8.18 86.11 10.08 87.97 11.41C86.11 12.74 84.86 14.64 84.03 16.41Z" fill="black"/>
</g>
</svg>
