<svg width="20" height="20" viewBox="0 0 20 20" fill="none" xmlns="http://www.w3.org/2000/svg">
<g id="WhatsApp (1) 1" clip-path="url(#clip0_32_2357)">
<g id="Vector" filter="url(#filter0_f_32_2357)">
<path d="M6.22455 15.7731L6.47966 15.9239C7.55114 16.5586 8.77968 16.8944 10.0325 16.8949H10.0352C13.8826 16.8949 17.0139 13.7704 17.0155 9.93005C17.0161 8.06907 16.2907 6.31904 14.9728 5.00262C14.3264 4.3534 13.5574 3.8386 12.7104 3.48801C11.8633 3.13741 10.9549 2.958 10.0379 2.96015C6.18745 2.96015 3.05611 6.08435 3.05474 9.92447C3.05285 11.2358 3.42282 12.5208 4.12188 13.6311L4.28796 13.8945L3.58266 16.4644L6.22455 15.7731ZM1.56618 18.4554L2.75774 14.1132C2.02287 12.8425 1.63627 11.4008 1.63672 9.9239C1.63866 5.3035 5.4059 1.54462 10.0353 1.54462C12.2818 1.54576 14.3904 2.41832 15.9762 4.00224C17.562 5.58615 18.4345 7.69151 18.4337 9.93062C18.4317 14.5507 14.6638 18.3102 10.0352 18.3102H10.0315C8.62604 18.3097 7.245 17.9578 6.01829 17.2902L1.56618 18.4554Z" fill="#B3B3B3"/>
</g>
<path id="Vector_2" d="M1.48 18.3693L2.67156 14.0271C1.93543 12.7533 1.54877 11.3083 1.55054 9.83777C1.55249 5.21737 5.31972 1.45849 9.94909 1.45849C12.1956 1.45963 14.3042 2.33219 15.89 3.91611C17.4758 5.50003 18.3483 7.60539 18.3475 9.84449C18.3455 14.4646 14.5777 18.2241 9.94898 18.2241H9.94533C8.53986 18.2236 7.15882 17.8716 5.93211 17.204L1.48 18.3693Z" fill="white"/>
<path id="Vector_3" d="M9.9516 2.87402C6.10116 2.87402 2.96982 5.99822 2.96845 9.83834C2.96656 11.1496 3.33653 12.4347 4.03559 13.5449L4.20167 13.8084L3.49637 16.3784L6.13837 15.687L6.39348 15.8378C7.46496 16.4725 8.6935 16.8081 9.94635 16.8088H9.94898C13.7965 16.8088 16.9278 13.6843 16.9293 9.84392C16.9322 8.92859 16.7531 8.02177 16.4025 7.17598C16.0519 6.33018 15.5367 5.56219 14.8867 4.91649C14.2402 4.26726 13.4712 3.75244 12.6241 3.40185C11.777 3.05126 10.8686 2.87185 9.9516 2.87402Z" fill="url(#paint0_linear_32_2357)"/>
<path id="Vector_4" fill-rule="evenodd" clip-rule="evenodd" d="M7.84997 6.33465C7.69267 5.98592 7.52716 5.97886 7.37775 5.97282L6.9755 5.96792C6.83556 5.96792 6.60818 6.02032 6.41596 6.22995C6.22374 6.43957 5.68144 6.9462 5.68144 7.97667C5.68144 9.00713 6.43343 10.0028 6.53821 10.1427C6.643 10.2827 7.98991 12.4647 10.1229 13.3042C11.8955 14.0019 12.2562 13.8631 12.6411 13.8283C13.026 13.7934 13.8826 13.3216 14.0574 12.8326C14.2321 12.3435 14.2323 11.9244 14.1799 11.8368C14.1275 11.7492 13.9875 11.6972 13.7775 11.5923C13.5675 11.4875 12.536 10.9809 12.3436 10.911C12.1513 10.841 12.0115 10.8063 11.8714 11.0159C11.7313 11.2255 11.3297 11.697 11.2072 11.8368C11.0847 11.9766 10.9625 11.9942 10.7524 11.8895C10.5424 11.7848 9.86668 11.5635 9.06492 10.85C8.44112 10.2948 8.02004 9.60923 7.89745 9.39972C7.77486 9.19021 7.88444 9.07674 7.98968 8.97238C8.08385 8.87851 8.19948 8.72778 8.3046 8.60554C8.40973 8.4833 8.44432 8.39592 8.51417 8.25636C8.58403 8.1168 8.54922 7.99421 8.49671 7.88951C8.4442 7.78482 8.03648 6.74888 7.84997 6.33465Z" fill="white"/>
</g>
<defs>
<filter id="filter0_f_32_2357" x="-5.49582" y="-5.51738" width="30.9915" height="31.0348" filterUnits="userSpaceOnUse" color-interpolation-filters="sRGB">
<feFlood flood-opacity="0" result="BackgroundImageFix"/>
<feBlend mode="normal" in="SourceGraphic" in2="BackgroundImageFix" result="shape"/>
<feGaussianBlur stdDeviation="3.531" result="effect1_foregroundBlur_32_2357"/>
</filter>
<linearGradient id="paint0_linear_32_2357" x1="9.80675" y1="3.71024" x2="9.87725" y2="15.6184" gradientUnits="userSpaceOnUse">
<stop stop-color="#57D163"/>
<stop offset="1" stop-color="#23B33A"/>
</linearGradient>
<clipPath id="clip0_32_2357">
<rect width="20" height="20" fill="white"/>
</clipPath>
</defs>
</svg>
